<?xml version="1.0" standalone="no"?>
<!DOCTYPE svg PUBLIC "-//W3C//DTD SVG 20010904//EN"
 "http://www.w3.org/TR/2001/REC-SVG-20010904/DTD/svg10.dtd">
<svg version="1.0" xmlns="http://www.w3.org/2000/svg"
 width="1166.000000pt" height="1427.000000pt" viewBox="0 0 1166.000000 1427.000000"
 preserveAspectRatio="xMidYMid meet">

<g transform="translate(0.000000,1427.000000) scale(0.100000,-0.100000)"
fill="#000000" stroke="none">
<path d="M9330 7661 c-47 -15 -85 -39 -121 -78 -74 -77 -99 -167 -75 -262 28
-109 134 -297 226 -401 l39 -44 36 39 c92 104 204 299 231 406 32 127 -27 254
-146 314 -50 26 -150 39 -190 26z m140 -335 l-131 -130 -67 67 -67 67 28 27
27 27 40 -39 40 -39 102 102 102 102 29 -28 28 -27 -131 -129z"/>
<path d="M9210 6825 l0 -35 190 0 190 0 0 35 0 35 -190 0 -190 0 0 -35z"/>
</g>
</svg>
