<?xml version="1.0" standalone="no"?>
<!DOCTYPE svg PUBLIC "-//W3C//DTD SVG 20010904//EN"
 "http://www.w3.org/TR/2001/REC-SVG-20010904/DTD/svg10.dtd">
<svg version="1.0" xmlns="http://www.w3.org/2000/svg"
 width="1392.000000pt" height="1427.000000pt" viewBox="0 0 1392.000000 1427.000000"
 preserveAspectRatio="xMidYMid meet">

<g transform="translate(0.000000,1427.000000) scale(0.100000,-0.100000)"
fill="#000000" stroke="none">
<path d="M80 14178 c-17 -68 -31 -101 -52 -121 -24 -24 -28 -37 -28 -81 l0
-53 45 8 c80 15 105 41 121 124 9 52 29 98 48 114 24 20 124 14 281 -18 128
-25 361 -68 550 -101 48 -8 244 -44 410 -75 44 -8 157 -28 250 -45 94 -16 208
-37 255 -45 47 -9 164 -29 260 -45 318 -54 352 -62 384 -91 28 -25 30 -31 31
-106 1 -87 22 -135 71 -168 15 -9 80 -69 145 -132 99 -96 129 -132 179 -219
61 -104 61 -105 78 -233 15 -122 15 -136 -2 -241 -17 -111 -62 -262 -98 -335
-48 -95 -264 -327 -353 -379 -65 -38 -141 -35 -408 18 -122 25 -337 67 -477
95 -261 52 -297 59 -505 105 -66 15 -151 34 -190 42 -38 8 -86 19 -106 25 -20
5 -58 13 -85 19 -27 5 -78 16 -114 24 -156 34 -360 78 -420 90 -36 8 -119 25
-185 40 -66 15 -130 29 -143 31 -21 5 -22 3 -22 -69 0 -62 3 -76 17 -80 26 -8
602 -124 823 -166 145 -28 154 -35 136 -110 -7 -30 -22 -93 -31 -140 -19 -87
-36 -120 -64 -120 -16 0 -248 43 -663 124 l-218 43 0 -52 0 -51 178 -33 c97
-18 209 -39 247 -46 93 -18 324 -61 405 -75 81 -15 101 -30 90 -72 -19 -63
-43 -69 -166 -44 -106 22 -210 41 -469 87 -66 11 -152 27 -192 35 -40 8 -77
14 -83 14 -7 0 -10 -210 -10 -663 l0 -662 148 -29 c152 -29 212 -40 417 -76
66 -12 156 -28 200 -36 44 -8 157 -25 250 -39 94 -14 278 -41 410 -60 291 -43
354 -52 470 -67 50 -6 96 -15 103 -21 16 -12 16 -72 0 -84 -16 -13 -159 -31
-303 -39 -60 -3 -159 -17 -220 -30 -60 -12 -144 -28 -186 -34 -41 -6 -100 -18
-130 -26 -49 -13 -196 -40 -730 -133 -151 -26 -287 -53 -401 -78 -27 -5 -28
-8 -28 -69 0 -42 4 -64 12 -64 6 0 135 24 287 54 462 91 1047 184 1631 258
162 20 169 20 375 4 369 -30 562 -63 1240 -207 105 -23 196 -46 202 -51 7 -6
10 -20 7 -33 -9 -36 11 -61 61 -75 50 -14 95 -3 95 24 0 7 8 23 17 35 17 20
20 20 78 6 155 -37 410 -92 505 -110 41 -7 82 -15 90 -17 12 -2 16 9 18 51 2
30 -1 58 -6 63 -5 5 -49 20 -97 33 -117 32 -129 44 -120 115 3 31 15 68 27 84
12 17 17 31 12 33 -59 21 -79 57 -48 87 21 22 90 13 118 -15 17 -16 18 -22 8
-45 -7 -14 -21 -28 -32 -31 -11 -3 -20 -8 -20 -12 0 -9 179 -43 190 -36 6 3
10 31 10 61 0 43 -4 56 -17 61 -29 10 -53 35 -53 54 0 25 -45 57 -105 75 -64
18 -96 48 -74 68 11 10 34 11 113 3 95 -10 100 -10 116 11 10 12 23 47 29 79
12 65 94 461 118 568 26 115 24 128 -17 136 -63 13 -188 38 -265 54 -41 8
-109 21 -150 30 -41 8 -109 21 -150 30 -41 8 -109 21 -150 30 -41 8 -110 22
-153 30 -42 9 -106 22 -142 30 -76 17 -95 7 -103 -53 -2 -20 -19 -102 -36
-182 -18 -80 -38 -171 -45 -203 -14 -68 -37 -97 -61 -77 -9 7 -13 20 -10 29 4
9 13 54 21 101 29 171 46 267 60 354 15 97 35 140 62 132 9 -2 35 -7 57 -10
22 -4 60 -11 85 -17 48 -10 620 -124 705 -140 46 -8 86 -16 250 -49 68 -13 85
-24 85 -52 0 -35 25 -3 49 61 25 69 43 88 61 67 6 -9 9 -20 5 -27 -4 -6 -14
-48 -21 -93 -14 -82 -30 -172 -59 -326 -23 -119 -59 -318 -90 -495 -8 -44 -22
-116 -30 -160 -24 -121 -44 -242 -56 -325 -5 -41 -14 -97 -19 -125 -5 -27 -12
-103 -15 -168 -3 -65 -10 -139 -14 -165 -5 -26 -12 -93 -16 -149 -6 -82 -11
-106 -27 -120 -17 -15 -54 -18 -321 -25 -166 -4 -522 -14 -792 -22 -269 -9
-636 -20 -815 -26 -179 -5 -446 -14 -595 -20 -314 -12 -758 -25 -1315 -40
-217 -6 -467 -15 -555 -20 -88 -6 -170 -10 -182 -10 l-23 0 0 -235 0 -235 24
0 c13 0 29 -6 35 -14 13 -15 9 -19 -34 -41 -19 -10 -20 -22 -23 -234 l-2 -224
39 7 c57 9 67 -8 51 -84 -7 -33 -10 -80 -7 -104 8 -52 -8 -71 -53 -64 l-30 5
0 -114 c0 -94 3 -113 15 -113 32 0 271 -63 283 -75 11 -10 -11 -45 -125 -195
-76 -100 -146 -192 -156 -204 -15 -18 -17 -38 -15 -125 l3 -104 147 194 c165
219 180 236 195 217 13 -17 40 -127 88 -353 10 -44 23 -105 31 -135 7 -30 14
-73 16 -95 3 -37 0 -41 -32 -57 -19 -9 -66 -24 -104 -34 -38 -9 -77 -25 -88
-36 -22 -22 -24 -86 -4 -172 25 -106 44 -198 66 -311 12 -60 25 -123 30 -139
6 -18 6 -34 1 -40 -10 -12 -20 -15 -221 -69 l-125 -33 -3 -61 -3 -61 233 59
c128 33 277 68 332 79 107 23 120 20 129 -28 2 -15 23 -99 45 -187 54 -211 65
-275 51 -291 -5 -7 -33 -18 -61 -24 -58 -14 -88 -39 -88 -75 0 -42 37 -58 111
-46 43 7 67 7 75 0 15 -12 36 -80 64 -204 11 -49 25 -108 30 -130 5 -22 25
-114 45 -205 20 -91 41 -180 46 -198 9 -28 8 -37 -7 -53 -9 -10 -25 -19 -35
-19 -10 0 -28 -4 -41 -9 -13 -5 -59 -17 -103 -27 -73 -15 -315 -71 -410 -94
-193 -47 -222 -49 -235 -17 -9 23 -74 297 -84 358 -8 46 -2 51 104 79 104 27
120 40 120 96 0 76 -55 98 -115 45 -41 -35 -119 -51 -143 -28 -8 8 -25 57 -38
109 l-23 93 0 -260 c-1 -191 3 -275 13 -315 7 -30 21 -91 31 -135 l17 -79 -31
-26 c-28 -24 -31 -32 -31 -80 l0 -53 40 6 c24 3 42 1 48 -7 12 -17 29 -71 52
-171 11 -49 27 -117 35 -150 7 -33 21 -94 30 -135 9 -41 21 -94 27 -117 13
-52 5 -64 -54 -80 -50 -14 -168 -43 -174 -43 -2 0 -4 -28 -4 -61 0 -59 1 -61
22 -55 114 29 229 48 240 38 19 -15 40 -96 103 -397 7 -33 22 -104 34 -158 24
-107 22 -121 -27 -130 -15 -3 -54 -12 -87 -20 -96 -24 -207 -49 -245 -56 l-35
-6 -3 -64 c-3 -62 -2 -63 20 -58 157 42 401 90 415 81 19 -12 35 -58 69 -209
14 -66 33 -147 40 -180 26 -115 46 -210 47 -230 3 -27 -41 -45 -206 -85 -105
-26 -140 -31 -149 -22 -6 6 -22 50 -34 98 -12 47 -30 94 -40 105 -24 26 -70
25 -85 -2 -12 -22 -10 -43 15 -162 13 -65 13 -68 -7 -82 -12 -8 -36 -18 -54
-21 l-33 -6 0 -114 c0 -86 3 -112 13 -109 33 11 547 135 582 141 29 4 44 2 52
-8 11 -13 51 -160 93 -343 11 -49 27 -117 35 -150 41 -173 43 -184 32 -193
-15 -10 -71 -27 -157 -46 -36 -8 -96 -21 -135 -30 -38 -8 -141 -29 -228 -47
l-158 -32 -28 27 c-22 21 -37 27 -62 24 l-34 -3 -3 -98 c-3 -97 -3 -98 20 -92
13 3 93 19 178 36 85 16 227 46 315 65 348 76 315 73 339 26 7 -15 28 -91 46
-169 l34 -143 190 0 c148 0 193 3 205 14 9 8 120 39 246 70 127 31 246 61 265
66 31 9 37 7 57 -15 13 -15 24 -45 28 -80 l7 -55 60 0 60 0 -4 38 c-3 20 -19
100 -36 177 -84 372 -82 359 -66 376 21 23 125 43 139 27 12 -14 24 -62 102
-403 9 -38 22 -95 29 -125 8 -30 14 -62 14 -72 0 -15 9 -18 60 -18 72 0 71 -4
35 143 -89 372 -115 501 -103 513 14 15 235 72 308 81 33 4 49 1 58 -10 12
-13 40 -121 112 -422 17 -72 40 -169 52 -217 l21 -88 95 0 c66 0 100 4 111 14
28 24 273 89 721 191 135 30 272 62 305 70 175 42 899 208 957 219 57 11 69
11 79 0 8 -10 8 -55 -1 -176 -6 -90 -14 -198 -17 -240 l-6 -78 57 0 c38 0 56
4 56 13 0 6 7 95 16 197 8 102 17 235 21 296 l6 112 -113 213 c-136 258 -332
624 -358 670 -10 19 -47 84 -82 144 -34 61 -77 137 -95 170 -18 33 -53 96 -78
140 -47 85 -47 99 1 108 15 3 77 18 138 33 62 15 118 25 126 22 8 -3 70 -97
138 -209 161 -267 163 -269 206 -269 27 0 37 5 46 25 15 33 4 57 -113 250
-130 216 -134 224 -117 240 13 13 130 48 199 59 32 6 40 3 62 -24 22 -26 149
-233 239 -390 l26 -45 -49 -46 c-50 -46 -62 -82 -37 -107 18 -18 69 -14 112 9
37 19 39 20 58 2 11 -10 26 -30 34 -45 13 -25 12 -28 -10 -45 -13 -10 -38 -26
-55 -35 -41 -23 -58 -60 -43 -93 15 -33 55 -33 127 1 30 14 61 24 69 21 8 -3
47 -49 86 -101 50 -67 70 -100 65 -113 -3 -10 -56 -56 -117 -103 -133 -102
-156 -128 -142 -167 7 -22 16 -29 44 -31 30 -2 52 10 164 93 70 52 134 95 141
95 12 0 58 -52 79 -87 3 -6 -3 -27 -14 -45 -49 -80 1 -138 80 -93 14 8 30 14
37 15 6 0 70 -57 142 -126 155 -149 158 -119 -28 -261 -160 -122 -248 -201
-265 -238 -8 -16 -17 -81 -21 -142 l-7 -113 55 0 c62 0 59 -6 73 133 5 58 10
71 36 92 22 19 34 23 47 15 21 -11 71 -158 71 -207 l0 -33 61 0 62 0 -6 58
c-3 31 -22 107 -41 167 -20 61 -36 115 -36 122 0 14 208 173 226 173 16 0 294
-287 399 -413 l90 -107 142 0 c79 0 143 3 143 8 0 4 -48 63 -106 131 -58 68
-103 128 -101 135 2 6 26 12 53 14 l49 3 140 -146 140 -147 80 4 80 3 -75 80
c-128 138 -161 180 -148 193 8 8 49 12 109 12 l97 0 55 -60 c31 -33 86 -98
123 -145 l68 -85 143 0 c79 0 143 4 143 8 0 5 -11 19 -25 32 -14 13 -99 113
-188 222 -123 151 -172 203 -202 217 -35 17 -75 20 -305 26 l-265 6 -90 92
c-49 51 -173 180 -274 288 -184 197 -205 224 -386 513 -33 53 -82 131 -110
174 -27 43 -76 120 -109 172 -32 52 -73 118 -91 146 -18 27 -42 69 -54 91 -11
23 -75 132 -141 243 -66 110 -120 203 -120 205 0 2 -33 59 -74 127 -40 68
-176 326 -301 573 -126 248 -279 533 -340 635 -137 227 -140 231 -215 420 -86
215 -94 244 -130 440 -35 191 -45 216 -143 352 -47 65 -91 128 -297 419 -135
192 -557 690 -790 933 -101 105 -614 523 -749 610 -41 27 -163 92 -270 146
-128 65 -272 149 -416 243 -121 79 -323 206 -450 282 -337 203 -335 202 -335
230 0 22 -3 24 -30 18 -24 -4 -30 -2 -30 11 0 13 7 17 24 14 13 -1 29 2 37 8
13 10 119 36 201 49 35 5 38 4 98 -70 34 -41 98 -106 143 -144 87 -74 89 -74
557 -315 205 -105 335 -179 396 -224 49 -37 240 -177 424 -312 306 -225 353
-264 579 -477 135 -127 262 -251 282 -275 264 -320 536 -662 606 -760 47 -68
129 -184 181 -258 53 -74 125 -178 162 -230 77 -109 92 -135 304 -555 86 -170
173 -332 194 -360 20 -27 120 -162 221 -300 101 -137 208 -281 236 -320 28
-38 112 -155 185 -260 74 -104 193 -273 265 -375 72 -102 419 -547 771 -990
743 -936 1076 -1386 1104 -1492 9 -34 30 -85 48 -112 38 -59 38 -63 10 -93
l-21 -23 166 0 c98 0 167 4 167 9 0 6 -22 45 -50 88 -46 72 -48 78 -33 95 9
10 33 23 54 29 35 11 40 10 72 -17 20 -16 72 -68 117 -117 l82 -87 79 0 c43 0
79 4 79 9 0 4 -43 55 -95 111 -113 122 -113 129 11 137 73 4 92 1 264 -49 174
-51 191 -58 287 -121 56 -37 105 -72 108 -77 3 -6 33 -10 66 -10 68 0 64 -11
49 125 -13 115 -39 389 -47 480 -7 87 1 96 112 118 155 31 152 30 170 3 10
-15 23 -73 31 -143 8 -65 22 -170 30 -233 8 -63 20 -168 26 -232 l12 -118 74
0 c71 0 74 1 60 18 -8 9 -18 40 -21 67 -4 28 -13 104 -22 170 -18 139 -42 328
-54 435 -6 48 -6 79 0 87 6 6 44 20 85 29 100 24 94 30 155 -184 16 -56 43
-150 60 -210 17 -59 34 -120 38 -137 14 -51 41 -148 53 -188 16 -53 5 -60
-110 -73 -83 -9 -35 -11 343 -13 423 -1 441 0 452 18 12 19 24 22 198 61 73
17 82 17 98 3 9 -9 17 -24 17 -34 0 -42 10 -49 72 -49 l60 0 -8 43 c-15 87
-16 85 76 111 128 35 218 50 234 37 15 -13 38 -83 50 -153 l7 -38 59 0 c33 0
60 4 60 9 0 15 -88 403 -135 596 -16 67 -93 388 -100 421 -3 12 1 26 8 31 13
10 96 38 138 47 46 10 47 7 99 -244 59 -285 91 -437 121 -585 17 -82 36 -178
42 -212 l10 -63 60 0 59 0 -4 38 c-5 35 -59 306 -128 632 -17 80 -42 201 -55
270 -14 69 -29 142 -33 162 -7 30 -6 41 7 53 17 14 219 85 245 85 7 0 24 -12
38 -27 26 -28 37 -62 83 -263 23 -104 72 -313 90 -385 8 -33 24 -100 35 -150
11 -49 25 -108 30 -130 21 -86 49 -212 55 -247 l7 -38 59 0 c47 0 59 3 59 16
0 13 -32 152 -125 554 -7 30 -20 84 -28 120 -82 356 -128 549 -137 569 -14 32
5 53 77 80 66 25 57 29 186 -83 94 -83 108 -106 134 -221 15 -68 21 -97 58
-270 9 -44 23 -107 30 -140 7 -33 20 -96 30 -140 9 -44 23 -107 30 -140 51
-234 65 -306 65 -324 0 -19 6 -21 60 -21 55 0 60 2 60 22 0 22 -208 1003 -236
1113 -22 85 -54 135 -134 206 -80 72 -80 76 15 119 60 28 272 112 311 124 28
8 58 -27 73 -84 12 -48 26 -98 146 -530 42 -151 82 -297 90 -325 7 -27 42
-156 78 -285 35 -129 67 -247 71 -261 8 -35 -17 -56 -84 -74 -29 -8 -55 -16
-58 -19 -3 -3 115 -6 261 -6 l267 0 0 65 c0 74 13 69 -110 40 -36 -8 -81 -16
-100 -17 -30 -3 -36 1 -51 32 -14 29 -85 278 -194 680 -13 47 -60 218 -105
380 -126 448 -125 447 -110 465 25 30 281 129 310 120 14 -5 35 -55 85 -208
37 -111 73 -212 81 -224 16 -25 62 -31 82 -11 23 23 12 81 -54 285 -77 242
-82 221 66 276 l95 35 3 73 c2 58 0 70 -10 62 -7 -6 -56 -27 -108 -48 -52 -20
-209 -82 -347 -137 -187 -74 -256 -98 -266 -90 -25 21 -131 237 -124 255 3 9
23 24 44 33 101 43 480 186 622 235 104 36 107 34 152 -92 17 -49 33 -89 35
-89 2 0 4 168 4 373 0 370 0 372 -21 382 -12 6 -28 28 -36 50 -24 65 -178 511
-264 760 -43 127 -99 288 -123 360 -41 118 -44 131 -30 146 14 15 128 55 402
141 l72 23 0 62 0 62 -48 -14 c-26 -8 -95 -30 -152 -49 -261 -85 -313 -99
-329 -89 -16 10 -40 71 -152 378 -34 94 -95 262 -136 375 -41 113 -81 221 -88
240 -8 19 -89 240 -180 490 -92 250 -198 538 -236 640 -37 102 -80 220 -94
263 -43 127 -46 127 258 -24 144 -72 341 -178 437 -236 96 -58 213 -128 260
-156 122 -72 183 -112 202 -134 18 -19 35 -68 143 -408 37 -115 77 -239 89
-275 l21 -65 3 184 c3 197 3 192 -63 390 -20 58 -7 78 36 55 l29 -15 0 388 0
388 -65 34 c-94 48 -118 69 -111 96 3 13 44 105 91 204 l85 180 -1 138 0 138
-38 -75 c-20 -41 -77 -160 -126 -265 -89 -191 -125 -258 -145 -270 -13 -8
-211 99 -240 130 l-22 23 22 89 c12 48 27 108 35 133 7 25 28 99 46 165 52
193 102 365 174 595 37 118 70 225 72 237 3 12 13 29 23 38 16 14 25 14 104
-5 48 -11 89 -20 91 -20 3 0 5 27 5 59 l0 59 -67 17 c-38 9 -75 20 -83 25 -19
10 -20 129 -1 280 8 73 9 131 3 190 -5 48 -5 90 0 96 4 6 33 14 62 18 84 10
86 11 86 73 l0 55 -78 -7 c-65 -6 -80 -4 -91 9 -7 9 -26 75 -41 147 -27 125
-39 156 -115 297 l-28 53 34 35 c19 20 88 81 154 136 141 118 165 144 165 179
0 34 -17 49 -57 49 -27 0 -57 -21 -180 -123 -150 -124 -192 -157 -204 -157 -4
0 -114 111 -245 246 l-239 246 27 23 c27 23 611 390 667 420 42 21 53 14 151
-99 l75 -86 3 91 3 92 -43 50 -42 50 42 37 43 36 -3 82 -3 81 -95 -80 c-96
-82 -169 -133 -317 -224 -143 -88 -285 -176 -393 -245 -58 -37 -130 -81 -160
-99 l-56 -31 -49 34 c-61 41 -205 164 -205 174 0 8 162 168 403 401 74 71 195
208 326 370 115 141 222 268 237 282 46 42 208 159 221 159 6 0 26 -19 44 -42
18 -24 36 -47 41 -52 4 -6 8 58 8 142 l0 152 -53 -24 c-52 -23 -138 -81 -267
-179 -97 -74 -102 -80 -228 -237 -195 -243 -300 -367 -315 -373 -9 -3 -23 3
-32 13 -13 15 -18 58 -25 266 -24 630 -24 608 -9 620 8 6 68 17 134 23 69 7
129 18 142 26 25 17 88 106 123 175 27 52 38 194 39 476 1 140 3 163 19 177
15 14 70 27 372 85 l95 18 3 61 3 61 -48 -10 c-476 -92 -514 -98 -531 -83 -9
8 -15 56 -19 156 -5 135 -4 146 15 170 16 20 34 28 74 33 91 12 288 35 401 48
l107 12 0 64 c0 61 -1 64 -17 50 -10 -9 -54 -21 -98 -27 -44 -7 -96 -14 -116
-17 -24 -4 -39 -1 -47 9 -10 12 -4 21 35 53 27 22 74 63 106 92 65 59 73 59
99 -5 9 -21 20 -49 26 -63 8 -19 11 17 11 145 l1 170 -37 107 -37 108 -93 0
-93 0 -178 -133 c-163 -122 -181 -133 -214 -129 -28 3 -45 -3 -85 -32 -28 -20
-55 -36 -62 -36 -15 0 -101 118 -101 140 0 19 46 59 148 130 34 23 62 47 62
51 0 5 -43 9 -96 9 l-95 0 -70 -56 c-80 -63 -102 -93 -92 -120 16 -45 153
-226 234 -309 l87 -90 16 -120 c23 -179 32 -411 16 -430 -17 -20 -282 -22
-298 -2 -9 11 -17 65 -42 307 -31 296 -38 320 -90 320 -47 0 -54 -31 -41 -170
26 -290 42 -433 46 -440 2 -4 -5 -16 -16 -26 -18 -17 -41 -19 -178 -22 -146
-4 -157 -3 -174 16 -17 18 -19 51 -24 363 -5 288 -8 347 -21 362 -22 25 -59
21 -77 -7 -14 -21 -16 -68 -14 -355 2 -267 -1 -333 -12 -347 -11 -14 -26 -15
-104 -9 -89 7 -201 28 -213 40 -4 4 -5 117 -4 252 3 265 2 273 -49 273 -51 0
-56 -22 -64 -270 -5 -159 -10 -229 -19 -238 -15 -15 -76 -10 -686 63 -437 52
-423 50 -441 71 -13 16 -14 16 45 343 21 117 21 117 144 92 87 -18 111 -20
179 -10 122 17 164 48 110 83 -19 13 -33 14 -77 6 -29 -5 -72 -10 -96 -10 -50
0 -179 33 -201 52 -17 14 -15 42 23 246 13 73 24 135 24 138 0 2 -49 4 -109 4
l-109 0 -11 -72 c-7 -40 -16 -91 -21 -113 -10 -42 -37 -193 -65 -360 -23 -142
-23 -142 -41 -159 -21 -21 -77 -20 -96 2 -8 9 -18 42 -22 72 -4 30 -13 109
-21 175 -60 516 -45 455 -111 455 -52 0 -54 -1 -54 -27 0 -16 5 -57 10 -93 12
-82 38 -297 54 -458 16 -164 22 -159 -125 -143 -63 7 -139 17 -169 22 -30 5
-93 13 -140 19 -115 13 -300 36 -440 55 -63 8 -167 21 -230 30 -63 8 -169 21
-234 30 -166 21 -159 12 -150 203 9 201 5 209 -124 298 l-94 64 -156 0 c-91 0
-152 -4 -146 -9 5 -5 54 -21 109 -36 120 -33 149 -47 240 -117 l70 -54 -2
-129 -1 -130 -59 -172 c-57 -170 -57 -173 -40 -202 9 -16 17 -38 17 -49 0 -36
-19 -41 -120 -27 -155 22 -445 72 -690 120 -47 9 -121 22 -165 30 -78 14 -158
29 -327 61 -46 8 -117 21 -158 29 -133 23 -195 38 -207 48 -23 17 -16 75 11
92 18 12 25 27 28 66 7 67 21 81 73 69 34 -8 879 -175 1216 -240 58 -11 115
-20 126 -20 30 0 44 22 50 83 7 68 4 70 -144 97 -59 12 -127 25 -150 30 -22 6
-175 37 -340 69 -164 33 -460 92 -658 131 -198 40 -391 78 -430 85 -80 15
-210 41 -305 60 -36 7 -101 20 -145 29 -44 9 -111 23 -150 31 -38 9 -87 18
-107 22 -21 3 -43 12 -49 19 -9 11 -48 14 -169 14 l-158 0 -6 -27 c-32 -163
-41 -200 -55 -216 -16 -16 -23 -16 -146 3 -144 23 -294 45 -427 64 -110 16
-128 30 -117 89 16 80 13 87 -29 87 -37 0 -37 -1 -50 -52 -17 -71 -37 -90 -82
-78 -19 5 -80 19 -135 30 -194 41 -240 52 -263 61 -13 5 -31 9 -41 9 -10 0
-24 7 -31 15 -11 13 -151 15 -1146 15 -624 0 -1134 -3 -1134 -7 0 -3 7 -14 16
-24 36 -40 -11 -159 -63 -159 -17 0 -96 14 -258 45 -38 7 -110 20 -160 30
-345 64 -449 87 -466 101 -13 11 -99 14 -470 14 l-454 0 -25 -92z m13654 -28
c15 -5 32 -25 42 -47 18 -43 53 -144 54 -155 0 -4 -35 -31 -77 -59 -43 -29
-133 -95 -201 -147 -68 -51 -142 -100 -165 -108 -38 -14 -42 -13 -61 5 -13 14
-23 45 -31 108 l-13 88 31 33 c30 31 321 256 362 280 25 14 28 14 59 2z
m-7394 -150 c333 -66 459 -95 472 -107 14 -15 15 -26 7 -68 -5 -27 -7 -69 -3
-93 8 -54 -16 -87 -56 -77 -14 4 -59 13 -100 20 -41 8 -109 20 -150 29 -41 8
-113 22 -160 31 -130 24 -238 46 -310 60 -36 7 -94 18 -130 25 -67 12 -117 27
-136 42 -16 11 12 187 33 210 9 10 30 18 48 18 17 0 236 -40 485 -90z m-2330
-115 c264 -48 260 -47 280 -72 11 -14 42 -97 70 -185 l51 -160 -37 -45 c-44
-54 -133 -126 -190 -153 -47 -23 -106 -26 -123 -6 -12 14 -1 85 39 260 35 155
35 154 -95 180 -190 37 -190 37 -180 121 11 95 4 93 185 60z m-995 -94 c110
-21 214 -41 230 -45 64 -13 347 -66 480 -90 254 -47 272 -55 267 -119 -2 -18
-50 -268 -107 -557 -58 -289 -112 -561 -121 -605 -9 -44 -22 -109 -29 -145 -8
-36 -16 -76 -18 -90 -6 -35 -113 -560 -143 -705 -29 -139 -49 -169 -107 -159
-59 11 -331 65 -472 94 -77 16 -230 48 -340 71 -203 41 -235 54 -235 93 1 42
39 170 57 186 10 9 43 27 73 40 230 95 288 140 454 354 87 111 116 164 158
286 26 75 31 106 40 270 11 212 2 308 -36 394 -61 138 -210 324 -333 416 -92
69 -123 102 -123 128 0 35 41 205 52 219 6 7 20 11 32 8 11 -3 111 -22 221
-44z m1510 0 c128 -27 457 -98 540 -116 39 -8 135 -28 215 -45 l145 -29 20 25
c19 24 22 25 34 10 11 -13 11 -20 3 -28 -7 -7 -12 -23 -12 -36 0 -20 -14 -91
-65 -327 -7 -33 -20 -91 -28 -130 -58 -269 -78 -364 -101 -470 -41 -183 -44
-200 -72 -350 -31 -168 -46 -244 -69 -350 -26 -119 -43 -210 -60 -305 -8 -47
-21 -121 -29 -165 -8 -44 -21 -118 -30 -165 -34 -188 -47 -246 -62 -260 -8 -8
-37 -20 -64 -26 -43 -10 -70 -7 -197 17 -231 44 -302 61 -315 76 -8 10 -5 52
11 166 28 204 42 246 95 295 l43 39 119 8 c65 4 173 11 239 14 l120 6 12 70
c7 39 17 95 23 126 6 31 8 63 5 70 -3 8 -25 27 -50 42 -107 68 -212 225 -234
352 -22 125 21 224 147 333 151 131 172 154 215 240 34 69 42 97 45 154 12
198 -88 368 -266 455 l-77 38 -130 0 c-75 0 -144 -5 -162 -12 -40 -15 -42 -12
-76 97 -39 127 -48 172 -35 187 6 7 11 13 12 13 0 0 42 -9 91 -19z m4470 -176
c377 -48 670 -86 780 -100 61 -8 182 -24 270 -35 224 -29 236 -31 269 -47 19
-10 42 -13 68 -9 64 10 60 -15 -13 -84 -82 -76 -134 -96 -318 -120 -380 -50
-524 -56 -681 -28 -89 16 -147 26 -367 62 -271 45 -304 53 -318 76 -3 6 3 37
14 70 12 33 21 75 21 93 0 42 27 129 43 139 16 10 7 11 232 -17z m-2973 -35
c357 -71 699 -139 793 -156 44 -8 116 -22 160 -30 44 -8 116 -22 160 -30 44
-8 116 -21 160 -29 75 -13 364 -68 430 -81 48 -10 53 -19 44 -71 -53 -305 -86
-460 -102 -481 -7 -8 -20 -11 -36 -7 -14 4 -60 13 -101 21 -41 8 -106 21 -145
29 -77 17 -165 35 -297 60 -93 19 -118 13 -118 -25 0 -31 34 -47 165 -74 201
-42 259 -57 273 -71 15 -13 11 -43 -22 -210 -8 -38 -22 -108 -31 -155 -9 -47
-23 -116 -31 -155 -34 -167 -38 -203 -24 -219 14 -18 56 -21 65 -5 5 8 121
563 142 681 3 15 11 32 18 38 17 14 79 3 105 -19 19 -15 20 -19 6 -91 -9 -41
-29 -149 -46 -240 -16 -91 -34 -187 -40 -215 -5 -27 -23 -124 -40 -215 -37
-198 -60 -304 -70 -320 -9 -14 -113 4 -925 156 -44 8 -118 22 -165 31 -47 8
-116 21 -155 28 -38 8 -110 21 -160 30 -49 9 -124 22 -165 30 -101 18 -237 43
-335 60 -113 20 -153 31 -170 45 -16 13 -15 29 5 130 5 25 33 164 61 310 28
146 56 271 62 278 13 17 67 12 192 -15 50 -11 183 -41 297 -67 114 -25 218
-46 231 -46 34 0 49 22 45 67 l-3 38 -90 21 c-84 20 -141 33 -320 70 -38 9
-88 20 -110 26 -22 6 -74 12 -115 12 -41 1 -81 5 -88 10 -18 11 -16 21 73 426
8 36 33 148 55 249 41 191 57 231 89 231 11 0 133 -23 273 -50z m-1207 -94
c73 -26 143 -69 152 -92 3 -9 -7 -28 -24 -47 -81 -87 -121 -169 -153 -317 -13
-63 -32 -120 -46 -143 -29 -44 -71 -65 -90 -45 -6 7 -19 69 -29 138 -20 153
-36 223 -102 440 -7 25 37 57 102 73 84 22 114 21 190 -7z m-351 -199 c66
-212 86 -340 107 -695 13 -211 8 -354 -13 -379 -12 -15 -80 -13 -178 7 -123
25 -441 72 -453 67 -8 -3 -21 -53 -36 -143 -12 -77 -28 -173 -35 -214 -8 -41
-22 -122 -31 -180 -9 -58 -23 -139 -30 -180 -8 -41 -21 -118 -30 -170 -9 -52
-18 -105 -21 -117 -3 -14 -14 -25 -31 -29 -38 -10 -58 7 -57 47 1 34 6 58 64
339 18 85 38 184 45 220 29 147 48 239 61 305 8 39 21 104 29 145 17 90 160
793 171 835 11 47 20 53 93 60 82 8 137 38 231 123 45 42 69 57 77 50 6 -5 23
-46 37 -91z m614 -34 c13 -23 30 -78 38 -122 14 -72 13 -85 -1 -143 -36 -139
-119 -250 -230 -306 -62 -31 -112 -97 -149 -194 -22 -59 -41 -77 -61 -57 -11
11 -15 50 -17 163 l-3 149 44 23 c115 61 143 106 166 263 9 57 24 120 35 141
23 46 117 132 139 128 9 -2 26 -22 39 -45z m3672 -174 c366 -60 688 -114 715
-120 45 -10 90 -35 260 -144 28 -18 78 -50 113 -71 35 -22 95 -60 135 -85 40
-25 88 -54 107 -64 54 -28 54 -28 116 -71 58 -40 197 -178 227 -225 9 -13 21
-60 26 -104 6 -44 18 -125 26 -180 31 -201 35 -238 25 -250 -8 -10 -87 -24
-218 -40 -19 -2 -40 -9 -48 -16 -19 -15 -18 -58 1 -66 9 -3 75 0 147 7 130 13
132 13 149 -8 16 -21 28 -56 84 -247 15 -49 47 -160 72 -245 93 -316 93 -317
74 -332 -26 -21 -58 -37 -115 -58 l-53 -20 -109 44 c-188 77 -340 141 -607
255 -274 118 -315 128 -385 98 -26 -11 -55 -10 -174 5 -79 10 -163 22 -188 27
-25 6 -97 19 -160 31 -63 11 -131 24 -150 29 -19 5 -55 12 -80 16 -44 6 -149
26 -240 45 -25 5 -97 19 -160 30 -438 81 -643 124 -666 142 -12 9 -12 11 46
318 16 85 38 207 50 270 63 342 73 375 108 363 9 -3 24 -12 32 -18 8 -7 96
-29 195 -48 99 -20 258 -52 353 -72 201 -41 227 -42 242 -16 14 28 12 66 -4
80 -8 7 -101 30 -208 52 -106 21 -256 52 -333 68 -77 16 -158 36 -180 45 -22
9 -49 15 -61 12 -42 -11 -49 15 -29 117 62 330 107 542 116 553 13 15 -51 25
749 -107z m2050 101 c47 -6 141 -17 210 -25 69 -8 181 -22 250 -30 188 -23
564 -67 770 -90 206 -24 250 -31 262 -43 6 -6 14 -56 17 -110 6 -105 18 -132
56 -132 39 0 52 28 60 130 4 52 11 101 17 108 8 9 57 12 183 12 126 0 175 -3
182 -12 25 -33 56 -676 33 -703 -8 -10 -30 -15 -64 -15 -43 0 -61 6 -111 40
-105 70 -145 76 -145 22 0 -30 17 -50 85 -95 63 -42 110 -57 173 -57 92 0 89
13 97 -330 3 -162 10 -360 15 -440 6 -108 6 -148 -3 -156 -16 -15 -163 -32
-342 -40 -145 -6 -151 -6 -169 15 -19 21 -19 21 38 103 65 96 74 140 31 160
-38 17 -61 1 -145 -103 -88 -109 -66 -104 -251 -53 -104 28 -143 34 -226 34
l-100 0 -94 66 c-137 97 -189 143 -189 167 0 30 47 105 70 112 11 4 49 3 84 0
102 -11 83 -43 385 607 47 102 40 158 -20 158 -31 0 -53 -26 -87 -100 -72
-159 -161 -337 -173 -347 -13 -10 -35 -3 -120 37 -114 55 -147 60 -174 30 -35
-39 -12 -68 104 -132 131 -71 138 -78 110 -104 -17 -15 -36 -19 -96 -19 -82 0
-71 7 -150 -91 -31 -39 -31 -39 -61 -23 -42 23 -614 452 -633 475 -24 27 -28
73 -38 414 -8 282 -7 314 11 425 11 66 25 126 30 133 12 14 11 14 118 2z
m2502 -177 c15 -14 18 -32 18 -130 0 -63 -5 -180 -11 -261 -10 -138 -12 -150
-42 -200 -65 -109 -70 -112 -177 -119 -75 -4 -98 -3 -106 8 -6 8 -14 61 -17
119 -3 58 -11 207 -18 332 -10 183 -10 230 0 242 10 12 40 16 124 19 62 1 134
4 161 5 34 1 55 -3 68 -15z m-3012 -144 c58 -6 110 -16 117 -22 15 -15 20
-164 6 -178 -10 -10 -62 19 -218 120 -108 71 -108 71 -93 88 8 11 23 13 48 9
19 -3 82 -11 140 -17z m-5580 -514 c6 -7 17 -44 23 -80 11 -62 10 -67 -11 -87
l-22 -22 -22 21 c-18 19 -21 32 -19 90 3 84 22 113 51 78z m-3240 -356 c715
-144 871 -177 886 -190 12 -10 15 -25 11 -64 -10 -95 -38 -230 -54 -254 -19
-29 -15 -29 -343 39 -135 28 -357 73 -495 100 -351 69 -408 82 -422 93 -15 11
-17 57 -4 107 5 19 17 71 27 115 9 44 24 88 33 98 20 24 37 22 361 -44z m9537
-312 c228 -169 289 -207 333 -207 26 0 219 -127 250 -165 16 -20 6 -42 -50
-113 l-42 -53 -147 7 c-100 5 -154 3 -168 -4 -11 -6 -53 -52 -93 -101 -76 -94
-92 -107 -108 -88 -18 21 -76 209 -195 622 -62 215 -71 263 -55 282 14 17 1
25 275 -180z m-5512 -43 c44 -8 103 -19 130 -24 28 -5 104 -19 170 -31 268
-47 308 -58 337 -90 31 -33 48 -36 88 -12 27 15 35 15 122 1 106 -19 348 -63
588 -108 91 -17 199 -37 240 -45 152 -28 213 -43 221 -57 9 -15 7 -39 -27
-230 -79 -452 -94 -538 -134 -748 -16 -85 -38 -202 -49 -260 -11 -58 -29 -148
-41 -200 -41 -190 -65 -314 -116 -620 -16 -98 -20 -104 -158 -252 l-99 -108
-456 -1 c-251 0 -530 -4 -621 -9 -676 -36 -822 -41 -836 -29 -19 15 -18 85 3
284 10 99 21 166 30 175 11 13 24 9 96 -28 87 -44 74 -41 532 -118 165 -28
195 -25 195 21 0 32 -40 49 -147 64 -158 22 -421 68 -458 79 -16 5 -54 23 -83
41 -29 17 -56 31 -61 31 -18 0 -63 60 -57 75 8 22 18 21 346 -55 74 -17 162
-38 195 -46 33 -8 80 -18 105 -23 25 -5 80 -16 124 -25 90 -18 139 -11 174 27
25 26 33 64 62 287 12 85 32 231 46 324 30 214 31 253 1 297 -30 45 -48 52
-202 85 -213 44 -243 51 -395 84 -246 53 -255 55 -268 63 -14 9 -12 30 23 217
13 69 33 177 45 240 11 63 25 135 30 160 5 25 19 97 30 160 11 63 25 135 30
160 5 25 17 86 26 135 9 50 23 101 31 114 16 26 22 25 188 -5z m-3945 -119
c41 -7 118 -21 170 -30 52 -9 129 -23 170 -30 41 -7 116 -20 165 -29 244 -44
249 -46 239 -105 -4 -20 -14 -44 -23 -55 -20 -22 11 -26 -391 48 -74 13 -218
39 -320 57 -110 20 -193 39 -203 48 -15 12 -18 25 -14 54 3 21 11 45 18 53 14
17 47 16 189 -11z m-348 -62 c15 -15 28 -32 28 -39 0 -7 -19 -27 -42 -46 -34
-26 -51 -33 -84 -32 -44 1 -91 24 -101 50 -3 10 9 31 33 55 34 35 43 39 88 39
41 0 55 -5 78 -27z m1354 -128 c54 -9 144 -22 199 -30 55 -8 145 -21 200 -30
55 -9 143 -22 195 -30 190 -28 304 -46 327 -51 55 -14 81 -94 47 -143 -15 -21
-21 -23 -78 -17 -33 4 -108 11 -166 16 -58 5 -143 16 -190 25 -47 9 -173 29
-280 45 -315 48 -384 60 -409 77 -21 13 -23 21 -19 68 3 30 10 61 17 69 17 20
33 20 157 1z m-1746 -45 c139 -28 260 -56 267 -62 21 -17 16 -60 -38 -334 -81
-417 -87 -445 -100 -460 -13 -16 -53 -18 -112 -4 -23 5 -91 18 -152 30 -263
48 -291 54 -310 72 -21 19 -20 27 41 358 8 47 28 160 43 252 16 93 34 175 41
183 18 22 42 20 320 -35z m11299 -86 c105 -30 160 -56 168 -80 4 -12 -74 -104
-88 -104 -5 0 -65 45 -134 101 -104 83 -124 103 -114 115 7 9 20 12 33 8 12
-4 72 -22 135 -40z m-4339 16 c58 -10 141 -26 185 -36 44 -9 92 -18 107 -21
47 -9 53 -24 41 -121 -8 -69 -54 -343 -110 -659 -3 -17 -18 -44 -34 -59 l-28
-27 -153 32 c-302 63 -298 61 -298 111 0 20 5 62 11 91 5 30 16 90 24 134 19
112 71 396 88 484 13 68 26 91 52 91 6 0 57 -9 115 -20z m4141 -147 c103 -82
287 -228 410 -325 123 -97 241 -194 262 -216 l37 -38 -39 -57 c-142 -202 -241
-325 -268 -331 -15 -4 -55 -13 -88 -20 -81 -18 -213 -56 -470 -136 -340 -106
-364 -110 -386 -69 -24 44 -104 252 -113 295 -11 49 -15 47 334 124 74 17 100
34 100 68 0 65 -42 68 -260 17 -115 -27 -222 -45 -232 -39 -5 4 -19 27 -30 53
-19 46 -30 76 -106 289 l-40 113 117 119 118 120 60 0 c62 0 83 -11 83 -44 0
-27 29 -56 55 -56 35 0 70 34 166 161 49 66 93 119 97 119 4 0 91 -66 193
-147z m-3598 43 c40 -8 124 -24 187 -36 63 -11 135 -25 160 -30 25 -5 97 -19
160 -30 298 -55 351 -68 364 -89 7 -10 -3 -94 -24 -223 -13 -78 -4 -108 36
-108 17 0 27 8 34 26 9 24 34 161 47 256 7 49 24 63 66 52 26 -7 38 -20 64
-74 54 -110 113 -268 113 -304 0 -43 -168 -605 -192 -642 -5 -7 -25 -10 -53
-6 -52 5 -85 -15 -85 -53 0 -46 12 -51 478 -163 97 -24 124 -43 116 -81 -20
-84 -72 -230 -83 -232 -3 -1 -25 -2 -47 -3 -23 -1 -53 -10 -68 -19 -53 -35
-59 -54 -101 -297 -18 -106 -40 -230 -59 -339 -18 -97 -38 -136 -64 -123 -9 5
-44 12 -77 16 -60 7 -184 29 -260 46 -22 5 -92 19 -155 31 -158 30 -156 27
-142 176 7 65 15 162 18 216 7 108 18 129 62 122 15 -2 80 -9 144 -16 105 -11
119 -10 142 5 26 16 34 49 18 73 -12 19 -53 31 -137 38 -90 7 -174 24 -193 39
-10 7 -12 30 -6 97 6 80 5 88 -15 108 -42 42 -77 22 -92 -52 -9 -42 -29 -268
-50 -562 -13 -176 -21 -200 -68 -190 -14 3 -84 12 -156 21 -71 8 -183 21 -247
29 -65 7 -126 16 -135 19 -30 8 -276 27 -488 36 l-200 8 -25 30 c-14 17 -38
65 -54 108 -31 85 -32 68 9 294 7 41 21 118 30 170 17 103 70 362 86 422 15
59 13 59 299 10 63 -11 137 -23 163 -27 l48 -6 -3 33 c-2 27 -10 36 -41 51
-20 9 -63 21 -95 26 -152 24 -277 50 -314 66 -24 9 -23 56 0 85 l18 22 135
-27 c73 -15 157 -31 184 -36 28 -5 66 -17 86 -25 44 -19 79 -6 79 29 0 49 -38
68 -197 97 -73 13 -187 37 -232 47 -41 10 -60 35 -43 56 14 16 46 12 302 -43
212 -46 200 -45 239 -18 50 33 79 98 90 198 5 47 23 159 40 250 29 150 51 276
68 385 5 34 27 75 40 75 2 0 36 -6 76 -14z m4574 -2 c6 -17 -18 -42 -268 -275
l-97 -89 -73 57 c-93 71 -139 114 -139 129 0 6 27 45 60 86 l59 75 93 8 c328
28 357 28 365 9z m-10487 -59 c12 -14 11 -22 -5 -51 -10 -18 -27 -41 -37 -51
-19 -17 -20 -17 -33 0 -14 19 -4 99 16 123 12 15 36 6 59 -21z m7438 -120
c136 -58 253 -112 261 -119 11 -12 7 -36 -25 -157 -20 -79 -39 -160 -42 -180
-5 -48 12 -79 43 -79 34 0 62 30 75 82 48 179 72 255 85 264 12 9 27 8 64 -6
102 -39 217 -98 240 -124 36 -38 74 -33 131 19 37 34 130 68 147 53 20 -16 60
-119 186 -476 19 -53 3 -60 -168 -71 -83 -6 -162 -11 -177 -11 -34 0 -58 24
-58 59 0 32 -32 66 -55 57 -18 -6 -35 -46 -35 -80 0 -47 -9 -48 -425 -76 -88
-6 -172 -15 -187 -21 -33 -13 -45 -43 -58 -148 -10 -83 -29 -131 -53 -131 -38
-1 -295 66 -311 80 -23 22 -23 22 89 390 67 223 85 293 80 323 -5 37 -20 75
-110 292 l-45 110 30 28 c17 15 40 27 51 27 12 0 132 -47 267 -105z m-7505
-240 c9 -33 19 -69 22 -81 5 -15 -5 -34 -34 -69 -34 -41 -41 -57 -41 -92 0
-23 -4 -44 -9 -47 -5 -3 -12 -36 -16 -73 -4 -38 -10 -72 -15 -78 -10 -13 -21
-73 -21 -111 1 -39 -21 -61 -39 -39 -8 9 -10 24 -5 42 5 16 9 42 11 58 2 27
29 193 54 335 5 30 15 91 22 135 7 44 17 86 22 93 14 22 32 -4 49 -73z m104
-199 c33 -36 51 -46 87 -51 97 -15 176 -150 176 -300 0 -62 -3 -74 -23 -93
-32 -30 -121 -47 -174 -33 -50 14 -63 29 -74 86 -11 58 -45 110 -89 132 -44
24 -48 58 -24 181 26 134 52 151 121 78z m953 -82 c12 -12 11 -30 -9 -141 -12
-71 -28 -157 -35 -193 -8 -36 -22 -111 -32 -168 -16 -86 -24 -107 -47 -130
-27 -26 -27 -26 -100 -13 -39 7 -97 17 -127 22 -30 4 -98 16 -150 25 -52 8
-135 22 -185 29 -49 8 -135 21 -190 29 -55 8 -120 18 -145 22 -59 9 -70 19
-70 64 0 57 20 68 73 37 83 -49 272 -62 317 -22 20 18 21 17 65 -28 33 -32 63
-51 107 -66 93 -32 145 -28 234 16 42 21 79 44 84 53 7 12 80 395 80 418 0 4
9 22 20 40 19 30 23 32 58 26 20 -3 44 -13 52 -20z m9400 -39 c26 -19 182
-173 347 -342 279 -287 304 -315 362 -414 60 -104 74 -142 105 -284 50 -236
63 -386 46 -535 -6 -52 -14 -121 -17 -152 -3 -32 -12 -63 -19 -69 -13 -11
-105 -3 -429 37 -60 7 -166 20 -235 28 -359 44 -336 32 -342 184 -5 99 -9 120
-67 287 -88 256 -206 602 -248 727 -39 116 -37 138 13 138 32 0 45 -22 105
-183 59 -159 77 -190 122 -213 34 -18 79 -17 379 10 258 23 278 29 278 76 0
20 -8 35 -25 46 -22 14 -38 15 -142 5 -65 -6 -185 -16 -266 -23 l-148 -12 -23
25 c-20 20 -99 216 -126 308 -9 34 -18 19 123 211 110 149 136 180 150 180 5
0 31 -16 57 -35z m-7634 -25 c29 -5 128 -25 220 -45 93 -21 198 -43 234 -50
164 -33 249 -57 266 -76 19 -22 17 -53 -22 -334 -8 -60 -21 -155 -28 -210 -25
-180 -37 -240 -50 -253 -11 -11 -29 -10 -107 7 -274 60 -327 72 -364 81 -22 5
-112 26 -200 46 -88 20 -166 41 -173 47 -20 16 -16 42 94 632 8 44 17 96 21
115 7 44 22 63 42 55 9 -4 39 -10 67 -15z m-977 -275 c85 -19 161 -41 169 -48
11 -12 11 -25 2 -75 -7 -34 -19 -67 -27 -73 -11 -10 -40 -9 -125 0 -104 12
-113 12 -125 -5 -30 -41 -5 -60 132 -95 148 -39 159 -47 151 -114 -3 -27 -14
-61 -24 -75 -23 -30 -31 -30 -227 12 -77 16 -154 32 -172 35 -52 9 -62 28 -52
98 23 158 61 349 72 363 15 19 59 14 226 -23z m6887 -48 c7 -4 30 -53 52 -109
70 -176 438 -1138 497 -1299 141 -383 177 -482 220 -604 25 -71 51 -146 59
-165 14 -38 11 -60 -7 -60 -15 0 -199 72 -477 185 -118 48 -305 123 -415 167
-229 92 -294 123 -302 144 -6 16 23 142 93 399 25 94 48 198 51 233 5 57 -12
259 -38 457 -19 141 -53 160 -359 201 -455 61 -484 66 -497 78 -12 11 -3 166
15 254 14 65 -13 61 752 107 140 8 262 17 270 18 26 5 75 2 86 -6z m1065 -113
c14 -17 21 -35 69 -174 16 -47 70 -204 120 -350 182 -528 170 -486 170 -576 0
-59 -4 -85 -15 -94 -8 -6 -19 -9 -24 -6 -5 4 -58 13 -118 21 -59 8 -151 21
-203 29 -52 8 -140 21 -195 30 -166 24 -160 19 -230 201 -25 66 -80 208 -121
315 -135 347 -151 398 -134 414 13 13 626 205 656 206 6 0 18 -7 25 -16z
m-1995 -414 c486 -68 487 -68 513 -88 18 -13 28 -33 33 -63 26 -166 32 -239
33 -354 0 -116 -3 -142 -31 -240 -18 -60 -46 -164 -64 -230 -43 -166 -59 -205
-81 -205 -21 0 -151 31 -225 54 -29 9 -55 23 -58 32 -3 8 17 126 45 262 64
311 67 337 44 362 -23 25 -57 26 -79 1 -9 -10 -23 -49 -30 -87 -8 -38 -28
-139 -46 -224 -18 -85 -38 -181 -44 -212 -6 -31 -16 -62 -22 -68 -8 -8 -37 -5
-110 14 -160 40 -202 55 -208 74 -6 18 6 86 74 417 32 153 41 216 38 269 -4
67 -5 70 -45 105 l-41 36 25 75 c24 73 38 100 53 100 4 0 106 -14 226 -30z
m-406 -261 c59 -13 83 -35 75 -69 -4 -14 -14 -61 -22 -105 -8 -44 -21 -109
-28 -145 -22 -109 -43 -212 -56 -280 -17 -88 -22 -94 -87 -87 -91 10 -93 14
-63 189 11 62 33 191 49 286 29 165 48 222 75 222 6 0 32 -5 57 -11z m2255
-574 c61 -8 155 -21 210 -30 465 -69 505 -78 505 -106 0 -5 -40 -91 -89 -192
-148 -299 -281 -638 -281 -711 0 -60 -20 -76 -66 -51 -45 24 -52 37 -113 205
-29 80 -79 217 -111 305 -32 88 -83 228 -113 310 -95 258 -98 267 -86 281 6 7
16 11 22 8 7 -2 62 -11 122 -19z m-4566 -86 c295 -11 291 -10 291 -94 0 -37
-5 -57 -16 -66 -25 -21 -1662 -36 -1682 -16 -20 21 -18 145 3 166 29 29 761
35 1404 10z m-1641 -11 c7 -7 12 -41 12 -83 0 -102 -3 -104 -170 -107 -116 -2
-144 1 -195 19 -68 24 -88 45 -65 66 16 15 249 103 290 110 53 9 117 6 128 -5z
m2402 -53 c433 -53 413 -47 438 -122 21 -63 22 -63 -458 -18 -235 22 -240 24
-240 91 0 63 20 78 89 70 31 -4 108 -13 171 -21z m4985 -14 c44 -6 139 -18
210 -27 203 -24 227 -34 205 -87 -5 -12 -19 -56 -31 -97 -68 -237 -114 -369
-133 -388 -14 -14 -21 -14 -53 -3 -51 19 -491 204 -578 243 -117 54 -115 38
-28 212 41 83 81 158 89 166 14 16 83 12 319 -19z m-4203 -118 c18 -21 13 -86
-8 -104 -18 -15 -39 2 -65 54 -16 30 -18 42 -8 53 16 19 63 18 81 -3z m361
-57 c40 -8 124 -24 187 -36 140 -27 253 -54 493 -119 100 -27 254 -68 342 -91
141 -36 249 -72 350 -116 17 -7 158 -65 315 -127 689 -277 670 -268 650 -292
-8 -9 -19 -11 -38 -5 -27 9 -322 112 -442 155 -221 78 -300 105 -340 115 -25
6 -70 17 -100 25 -30 7 -134 34 -230 58 -421 110 -621 159 -800 197 -52 11
-113 24 -135 30 -22 5 -80 19 -130 30 -49 12 -121 28 -160 37 -92 21 -108 35
-99 88 11 71 19 74 137 51z m-1358 -207 c50 -5 162 -16 250 -24 239 -22 274
-27 284 -39 10 -12 2 -101 -33 -386 -26 -205 -29 -220 -41 -230 -13 -11 -212
-2 -810 35 -592 38 -702 44 -900 56 -144 8 -214 16 -224 24 -10 10 -16 76 -24
275 -10 241 -9 262 7 278 15 16 67 17 619 23 613 6 713 4 872 -12z m-2410 -12
c72 0 272 3 445 8 266 7 317 6 326 -6 12 -14 34 -313 34 -450 0 -123 48 -112
-553 -121 -282 -4 -642 -12 -802 -18 -426 -15 -539 -14 -556 7 -18 21 -27 506
-10 527 14 16 188 32 516 47 132 6 242 13 245 16 3 3 55 2 115 -2 61 -4 169
-7 240 -8z m-1248 -67 c9 -18 13 -92 13 -266 0 -207 -2 -243 -16 -255 -17 -14
-174 -20 -1054 -39 l-535 -12 -105 -29 c-58 -16 -117 -29 -130 -29 -13 0 -179
79 -369 176 -283 145 -360 188 -423 241 -98 81 -132 121 -118 138 11 13 43 14
770 40 891 31 1323 47 1510 54 107 5 251 8 320 7 122 -1 125 -1 137 -26z
m8527 -51 c105 -44 245 -103 311 -131 193 -81 225 -96 231 -111 4 -12 -9 -68
-72 -297 -45 -168 -66 -229 -81 -241 -13 -12 -76 13 -328 126 -38 18 -147 66
-241 109 -94 42 -181 84 -192 92 -26 18 -28 48 -8 119 13 46 30 89 116 295 31
76 56 120 66 120 4 0 92 -36 198 -81z m-4086 35 c65 -13 420 -92 557 -124 22
-5 72 -16 110 -24 76 -17 198 -45 340 -78 50 -11 98 -28 108 -36 20 -18 18
-34 -18 -147 -12 -38 -43 -137 -69 -220 -63 -202 -86 -262 -101 -275 -10 -8
-31 -7 -77 5 -109 28 -825 222 -924 250 -28 8 -57 15 -64 15 -26 0 -50 33 -50
67 0 31 33 303 59 486 9 66 23 97 43 97 5 0 44 -7 86 -16z m1349 -308 c111
-27 432 -111 508 -133 28 -7 64 -18 81 -22 42 -11 54 -19 54 -37 0 -21 -57
-226 -92 -329 -94 -282 -109 -310 -154 -300 -43 10 -348 87 -479 121 -77 20
-151 38 -165 41 -38 8 -69 41 -63 66 16 72 183 589 196 605 12 15 -2 16 114
-12z m-9708 -64 c-4 -20 -15 -66 -23 -102 -8 -35 -13 -67 -10 -71 2 -4 21 -10
41 -14 49 -9 266 -60 365 -86 116 -30 472 -158 663 -238 230 -96 600 -281 725
-361 25 -16 77 -48 115 -71 60 -37 137 -86 370 -238 74 -48 449 -345 555 -439
l105 -94 47 6 47 7 272 -327 c306 -367 340 -415 332 -473 -5 -34 1 -48 56
-130 34 -50 66 -103 71 -117 6 -15 52 -97 104 -183 51 -86 218 -402 370 -703
237 -469 275 -550 270 -577 -4 -17 -2 -37 3 -43 6 -7 54 -98 108 -203 54 -104
117 -226 140 -270 23 -44 73 -138 110 -210 177 -342 212 -406 262 -485 30 -47
96 -150 147 -230 120 -189 390 -563 479 -665 38 -44 151 -174 251 -290 99
-116 243 -274 319 -353 117 -119 137 -144 127 -157 -31 -37 -58 -20 -254 167
-424 404 -440 420 -668 728 -139 188 -162 224 -421 655 -113 187 -236 405
-275 485 -38 80 -130 269 -205 420 -74 151 -205 428 -292 615 -86 187 -192
408 -235 490 -42 83 -128 249 -191 370 -98 191 -255 446 -387 630 -16 22 -79
113 -141 202 -102 146 -127 175 -250 285 -75 68 -172 157 -216 198 -303 283
-423 386 -594 508 -102 74 -217 157 -256 186 -87 65 -188 127 -330 203 -60 33
-195 106 -298 162 -189 103 -260 134 -650 281 -153 57 -280 96 -457 141 l-245
61 -63 61 c-73 72 -89 113 -72 180 30 113 53 155 75 137 9 -7 10 -22 4 -48z
m10752 -238 c134 -47 305 -108 379 -134 139 -49 479 -196 585 -253 69 -37 82
-57 131 -197 30 -87 34 -105 22 -116 -10 -11 -21 -11 -43 -4 -17 6 -91 26
-165 46 -74 19 -146 39 -160 44 -14 4 -48 15 -76 24 -28 8 -127 52 -220 96
-93 45 -212 96 -264 115 -217 76 -506 188 -522 202 -12 11 -14 22 -8 41 4 15
18 63 31 107 21 75 42 115 59 115 5 0 117 -39 251 -86z m-5332 -9 c21 -20 30
-595 10 -611 -15 -11 -85 -33 -177 -55 -85 -21 -91 -12 -107 163 -11 125 -6
122 -234 128 -230 6 -220 1 -251 142 -34 160 -41 210 -29 225 9 10 51 13 163
14 83 1 230 5 326 9 198 8 279 4 299 -15z m558 3 c12 -13 26 -49 32 -83 6 -33
18 -91 26 -130 37 -174 45 -228 34 -242 -15 -17 -105 -43 -329 -92 -52 -12
-108 -26 -125 -31 -21 -7 -33 -6 -41 3 -18 18 -31 561 -14 582 10 12 45 15
204 15 187 0 193 -1 213 -22z m523 -4 c146 -8 369 -21 495 -29 127 -8 343 -21
480 -30 449 -27 546 -35 556 -41 33 -20 98 -295 77 -321 -13 -16 -132 -17
-279 -3 -127 12 -330 26 -674 45 -143 9 -372 22 -510 30 -412 23 -443 26 -458
44 -15 16 -26 61 -53 214 -20 106 -15 116 54 110 26 -2 166 -10 312 -19z
m-2018 -21 c16 -19 34 -89 68 -268 26 -133 36 -162 63 -177 12 -6 100 -13 204
-16 221 -6 215 -2 221 -125 6 -117 32 -102 -338 -191 -80 -19 -174 -39 -210
-46 -68 -12 -96 -18 -220 -49 -117 -30 -137 -32 -150 -16 -39 47 -91 855 -57
883 18 15 62 19 243 20 142 2 163 0 176 -15z m-570 -10 c15 -13 18 -31 18 -97
0 -45 -4 -87 -9 -95 -9 -14 -14 -11 -175 118 -81 65 -77 78 22 84 37 2 80 4
96 5 16 1 38 -5 48 -15z m-514 -6 c9 -10 7 -19 -4 -35 -25 -36 -50 -45 -81
-28 -27 14 -29 13 -73 -36 l-45 -51 -45 23 c-38 20 -48 21 -77 11 -32 -12 -35
-11 -93 40 -45 40 -57 56 -49 66 8 9 66 13 228 16 119 1 219 3 222 5 4 1 11
-4 17 -11z m-618 -48 c16 -23 32 -50 35 -60 4 -11 101 -105 216 -209 156 -142
216 -190 235 -190 31 0 53 23 159 160 44 58 101 127 127 155 l47 50 34 -18
c19 -11 56 -41 83 -68 l49 -50 -20 -34 c-11 -18 -73 -97 -137 -175 -147 -176
-147 -173 -43 -279 71 -73 75 -80 75 -123 0 -32 6 -50 20 -63 11 -10 20 -23
20 -30 0 -21 -167 -80 -207 -73 -12 1 -121 96 -243 210 -190 178 -265 239
-519 425 -357 262 -454 336 -458 350 -3 7 7 19 22 29 31 20 136 31 332 33
l143 1 30 -41z m5599 -93 c69 -19 277 -75 462 -125 185 -50 380 -102 435 -116
127 -33 338 -88 482 -126 61 -16 165 -43 230 -60 119 -31 156 -51 165 -92 3
-12 34 -137 70 -277 91 -362 94 -401 29 -379 -15 5 -92 27 -172 50 -233 65
-490 138 -560 159 -36 11 -123 36 -195 56 -136 37 -162 45 -310 89 -99 29
-304 90 -375 110 -298 86 -297 86 -311 139 -6 23 -15 57 -20 76 -5 19 -22 91
-38 160 -17 69 -39 163 -50 210 -32 138 -31 160 11 160 12 0 78 -15 147 -34z
m2066 -137 c242 -83 473 -175 491 -194 19 -21 21 -39 28 -246 5 -123 11 -308
15 -410 7 -202 11 -219 61 -219 53 0 53 -1 45 408 -6 327 -5 379 7 390 12 10
34 3 119 -36 122 -57 156 -68 474 -157 132 -37 246 -73 253 -80 7 -6 46 -99
86 -206 97 -260 102 -277 89 -297 -11 -18 -171 -82 -254 -102 l-51 -12 -151
150 c-151 149 -191 178 -278 201 -87 24 -133 1 -113 -56 7 -22 23 -33 74 -53
57 -22 80 -40 194 -153 107 -108 126 -131 115 -142 -16 -15 -109 -54 -219 -91
-70 -24 -182 -65 -550 -200 -208 -76 -262 -94 -282 -94 -25 0 -43 34 -62 120
-10 41 -24 102 -32 135 -50 213 -53 233 -35 248 9 8 27 18 41 22 51 14 70 34
70 70 0 26 -7 38 -30 55 -23 16 -30 29 -30 54 0 42 -28 68 -77 72 -21 2 -41 3
-44 3 -13 2 -30 59 -89 294 l-59 238 40 123 c39 120 70 186 87 186 4 0 35 -9
67 -21z m-10225 -31 c47 -11 115 -29 152 -39 78 -23 75 -19 81 -149 2 -69 18
-136 80 -360 87 -308 106 -357 139 -365 29 -7 82 4 498 105 576 139 588 142
615 127 20 -10 211 -146 338 -240 65 -49 67 -51 50 -70 -26 -28 -142 -83 -204
-97 -30 -6 -83 -18 -119 -27 -36 -8 -126 -27 -200 -43 -74 -16 -164 -36 -200
-44 -134 -29 -356 -79 -395 -87 -22 -4 -83 -18 -135 -29 -52 -12 -124 -28
-160 -36 -36 -7 -94 -20 -130 -29 -114 -26 -232 -46 -245 -41 -7 2 -15 19 -18
38 -3 18 -22 101 -42 183 -42 174 -109 466 -132 575 -30 143 -41 196 -81 380
-55 256 -56 261 -40 271 14 9 16 8 148 -23z m6265 -108 c83 -5 240 -15 350
-21 217 -12 253 -21 241 -62 -59 -203 -66 -272 -41 -387 18 -81 18 -92 3 -113
-12 -16 -159 -58 -463 -133 -55 -13 -117 -29 -137 -36 -44 -13 -63 -2 -71 40
-2 15 -29 140 -60 277 -86 386 -91 413 -77 430 15 18 47 18 255 5z m-5792 -40
c48 -16 109 -38 135 -49 26 -11 104 -42 173 -70 118 -46 254 -115 461 -233 99
-57 114 -71 96 -85 -7 -5 -101 -31 -208 -57 -107 -26 -276 -67 -376 -92 -201
-49 -224 -52 -246 -26 -8 9 -38 100 -67 202 -28 102 -59 208 -67 235 -22 71
-30 171 -14 190 16 19 11 20 113 -15z m6764 -32 c17 -14 15 -71 -12 -263 -18
-135 -24 -162 -39 -173 -10 -9 -114 -35 -183 -46 -19 -3 -35 0 -42 8 -6 7 -20
57 -32 112 l-21 100 36 123 c47 167 46 165 174 158 61 -4 110 -11 119 -19z
m592 -28 c50 -6 91 -16 101 -25 19 -17 22 -27 45 -135 20 -95 19 -96 -235
-145 -41 -8 -127 -25 -190 -38 -177 -37 -209 -41 -216 -23 -11 29 37 358 55
380 10 12 298 3 440 -14z m-1931 -68 c20 -52 26 -76 97 -399 19 -89 35 -174
35 -187 0 -35 -31 -53 -147 -82 -54 -14 -111 -29 -128 -34 -24 -8 -33 -6 -48
8 -18 19 -25 38 -76 232 -115 430 -107 389 -85 409 24 24 301 94 331 84 6 -3
16 -16 21 -31z m-496 -99 c9 -10 18 -29 21 -43 5 -25 15 -64 76 -290 65 -239
75 -288 63 -303 -16 -19 -140 -52 -447 -121 -142 -31 -141 -32 -153 116 -10
116 -20 138 -61 138 -47 0 -51 -13 -51 -161 0 -97 -4 -139 -12 -146 -16 -12
-99 -37 -192 -58 -60 -13 -72 -14 -84 -2 -14 14 -33 91 -112 452 -38 172 -38
181 -21 195 17 15 67 29 361 99 176 42 194 45 206 29 14 -18 44 -116 44 -142
0 -11 -7 -30 -15 -40 -18 -24 -20 -77 -3 -94 17 -17 100 -15 126 4 29 20 29
67 0 202 -19 89 -20 105 -7 116 14 13 145 51 204 59 17 2 33 5 36 6 3 0 13 -7
21 -16z m-1632 -186 c0 -51 -43 -84 -69 -53 -13 16 0 59 26 88 21 24 43 6 43
-35z m4257 -48 c14 -29 24 -68 58 -211 62 -267 76 -326 87 -367 18 -70 33 -64
-407 -167 -82 -19 -170 -39 -195 -44 -169 -35 -255 -54 -535 -120 -44 -10
-129 -30 -190 -44 -60 -14 -148 -34 -195 -45 -153 -36 -293 -62 -305 -57 -7 2
-15 17 -18 33 -3 15 -19 89 -36 163 -93 405 -101 454 -83 471 9 9 35 21 57 26
60 16 426 111 535 139 52 14 226 52 385 84 160 32 389 79 510 105 121 25 238
50 260 54 51 11 58 9 72 -20z m433 -66 c242 -71 402 -123 418 -136 14 -11 13
-19 -25 -184 -24 -106 -25 -114 -9 -138 20 -30 56 -33 81 -5 15 17 57 150 72
232 3 15 13 34 22 42 15 14 24 13 86 -3 137 -36 183 -52 199 -70 15 -17 15
-23 1 -76 -36 -141 -30 -185 25 -185 39 0 55 24 81 120 12 47 28 91 34 98 13
15 2 17 370 -88 225 -64 276 -80 297 -98 19 -16 34 -63 67 -212 40 -177 48
-225 40 -235 -9 -12 -50 -24 -244 -70 -82 -20 -168 -40 -190 -45 -103 -25
-214 -49 -252 -55 -51 -8 -51 -8 -89 155 -38 164 -43 179 -69 196 -32 21 -57
15 -73 -19 -12 -25 -11 -40 3 -105 28 -125 46 -206 50 -228 3 -12 -2 -27 -9
-33 -15 -12 -154 -49 -371 -97 -120 -27 -167 -37 -300 -68 -188 -44 -215 -43
-215 7 0 11 -5 37 -12 59 -9 32 -9 41 4 54 8 8 79 31 159 50 169 41 191 53
187 96 -6 59 -24 59 -297 3 -88 -18 -91 -16 -110 63 -15 60 -7 77 37 85 92 16
230 51 250 63 26 17 30 65 7 84 -17 14 -129 8 -182 -10 -49 -18 -144 -17 -153
0 -5 8 -18 58 -30 110 -12 52 -38 160 -56 240 -76 316 -103 454 -93 466 13 15
59 5 289 -63z m-4173 21 c15 -24 43 -135 89 -354 9 -41 23 -106 31 -145 25
-113 24 -127 -17 -146 -34 -16 -80 -28 -210 -54 -58 -12 -67 -12 -81 3 -21 21
-162 542 -163 600 -1 42 1 44 37 57 31 11 144 38 242 58 43 9 55 6 72 -19z
m-495 -101 c8 -10 18 -27 21 -38 92 -321 157 -588 147 -600 -6 -7 -39 -20 -76
-30 l-65 -18 -25 24 c-14 13 -62 69 -107 124 -44 55 -117 145 -162 200 -189
232 -178 217 -163 231 19 20 112 51 263 90 155 39 148 38 167 17z m-3883 -166
c11 -14 84 -311 112 -461 11 -57 11 -61 -11 -78 -12 -10 -29 -18 -38 -18 -9 0
-31 -5 -49 -12 -27 -10 -36 -10 -47 2 -13 14 -50 158 -81 320 -7 36 -18 93
-25 128 -7 34 -10 69 -6 77 6 16 38 32 91 45 43 11 41 11 54 -3z m6158 -119
c6 -7 22 -69 38 -138 15 -69 41 -183 56 -255 43 -191 51 -247 36 -262 -13 -14
-59 -26 -222 -63 -55 -12 -145 -32 -200 -45 -260 -60 -255 -59 -269 -44 -7 8
-21 48 -31 89 -20 86 -37 110 -75 110 -52 0 -59 -27 -38 -150 14 -79 10 -87
-52 -107 -53 -18 -159 -35 -170 -28 -6 3 -10 16 -10 27 0 12 -4 35 -10 52 -5
17 -15 50 -20 73 -13 52 -33 73 -71 73 -48 0 -56 -33 -35 -139 10 -49 15 -98
12 -109 -9 -26 26 -15 -476 -147 -91 -24 -174 -46 -186 -50 -26 -8 -30 -3
-230 280 -224 318 -217 306 -202 321 13 12 357 100 506 129 33 7 72 -14 72
-38 0 -15 71 -200 86 -224 17 -28 48 -37 74 -23 30 16 26 74 -15 194 -19 57
-32 111 -29 120 9 23 85 43 721 191 154 35 376 89 494 119 118 30 219 55 225
56 6 0 16 -6 21 -12z m-3873 -110 c108 -97 405 -370 485 -445 48 -46 54 -54
41 -66 -8 -7 -82 -30 -165 -50 -304 -74 -604 -146 -735 -176 -74 -17 -162 -38
-195 -46 -33 -8 -112 -26 -177 -40 -98 -21 -255 -63 -523 -140 -27 -8 -147
-37 -265 -65 -118 -28 -230 -56 -249 -62 -47 -15 -64 7 -89 117 -39 167 -38
170 22 186 53 14 76 35 76 69 0 42 -22 54 -89 47 -68 -7 -71 -5 -94 68 -27 88
-40 175 -26 191 15 18 36 24 364 95 154 34 307 67 340 74 33 8 123 27 200 44
733 159 733 159 935 258 25 12 47 22 48 22 2 1 45 -36 96 -81z m9771 -21 c8
-12 40 -92 70 -177 31 -85 87 -238 125 -340 169 -459 322 -878 360 -985 15
-44 31 -87 35 -96 10 -25 -18 -45 -97 -69 -40 -13 -120 -38 -178 -57 -110 -36
-152 -45 -417 -89 -191 -32 -184 -34 -226 74 -38 99 -162 453 -222 637 -30 88
-74 218 -99 288 l-46 128 28 15 c15 8 52 27 82 42 46 22 56 32 58 57 7 55 -40
68 -136 38 l-55 -18 -21 28 c-29 39 -99 248 -86 261 12 12 20 15 495 185 154
55 288 100 297 100 10 1 24 -9 33 -22z m-3757 -219 c5 -7 12 -26 15 -43 3 -16
19 -93 35 -170 89 -408 93 -440 62 -456 -8 -4 -46 -14 -85 -23 -38 -8 -110
-24 -160 -35 -49 -12 -110 -25 -135 -31 -25 -5 -110 -25 -190 -44 -142 -33
-295 -69 -435 -100 -38 -8 -110 -25 -160 -36 -49 -11 -121 -28 -160 -36 -93
-21 -175 -39 -260 -58 -202 -46 -200 -46 -212 -33 -22 23 -158 613 -147 641 7
18 40 31 128 51 85 20 90 16 112 -80 32 -141 41 -169 57 -179 24 -15 51 4 55
38 2 14 -6 74 -17 133 -14 67 -18 110 -12 117 16 19 60 31 386 107 448 104
437 102 456 79 9 -10 28 -63 43 -117 30 -108 46 -133 86 -133 57 0 62 36 26
180 -22 88 -23 96 -8 111 18 17 188 62 467 122 35 8 42 7 53 -5z m2823 -145
c36 -85 100 -286 95 -300 -3 -7 -29 -24 -58 -37 -71 -31 -95 -58 -82 -94 12
-34 56 -40 127 -17 41 14 52 14 62 3 15 -16 84 -189 109 -275 31 -102 20 -107
-154 -73 -121 24 -136 24 -214 6 -34 -8 -128 -29 -211 -46 l-149 -32 -17 21
c-9 11 -29 74 -43 138 -15 65 -31 136 -36 158 -6 22 -26 111 -45 198 -39 172
-38 178 15 199 123 50 540 197 558 198 18 0 27 -10 43 -47z m-776 -233 c9 -10
23 -45 30 -77 13 -60 37 -163 61 -268 13 -56 35 -156 54 -250 10 -48 -5 -70
-53 -78 -18 -3 -72 -12 -122 -21 -130 -24 -127 -24 -141 4 -16 30 -42 50 -66
50 -23 0 -58 -39 -58 -65 0 -26 -25 -50 -60 -58 -14 -3 -52 -12 -85 -20 -65
-16 -313 -71 -410 -92 -33 -7 -125 -27 -205 -45 -152 -34 -185 -41 -393 -85
-126 -27 -129 -27 -146 -9 -10 11 -29 69 -44 129 -15 61 -47 195 -72 298 -49
202 -49 210 3 220 15 3 96 22 181 42 127 30 156 34 166 23 13 -15 35 -86 61
-198 19 -85 36 -110 74 -110 53 0 62 40 35 160 -35 151 -37 172 -23 184 20 18
74 34 204 61 144 30 143 31 174 -98 30 -123 43 -147 78 -147 16 0 33 5 40 12
17 17 14 90 -8 188 -12 54 -15 88 -9 96 9 11 76 31 203 59 66 15 71 15 87 -2
9 -10 27 -61 39 -113 25 -105 40 -130 80 -130 56 0 62 39 30 184 -21 95 -18
109 23 119 12 3 67 17 122 30 124 31 128 31 150 7z m-7374 -27 c25 -27 249
-346 343 -490 26 -39 46 -80 44 -90 -5 -25 -58 -42 -273 -88 -33 -7 -125 -27
-205 -45 -231 -51 -233 -52 -247 -37 -7 7 -45 116 -84 242 -122 392 -123 395
-108 410 8 7 73 27 144 45 72 17 166 39 210 50 150 36 146 36 176 3z m3361
-50 c10 -9 18 -25 18 -36 0 -12 7 -46 15 -76 8 -31 26 -108 40 -171 13 -63 33
-149 44 -190 35 -141 36 -155 5 -179 -15 -11 -34 -21 -43 -21 -9 0 -41 -6 -71
-14 -81 -21 -143 -28 -159 -17 -7 5 -31 75 -52 157 -24 97 -44 153 -55 161
-38 28 -177 9 -206 -28 -23 -28 -23 -44 3 -70 16 -16 31 -20 65 -18 24 2 48
-1 52 -6 9 -10 29 -78 51 -169 15 -64 0 -82 -75 -92 l-55 -6 -57 50 c-67 57
-120 92 -143 92 -9 0 -24 -9 -34 -20 -23 -26 -14 -62 31 -116 36 -45 33 -56
-16 -67 -25 -6 -40 -10 -235 -62 -504 -134 -645 -168 -659 -156 -22 18 -318
610 -311 622 12 19 83 40 530 154 296 75 1167 275 1260 288 17 2 32 5 34 6 3
0 13 -6 23 -16z m-4027 -106 c15 -23 59 -154 125 -367 18 -58 38 -123 45 -145
27 -84 29 -112 7 -124 -21 -11 -108 -32 -232 -56 -36 -7 -72 -15 -81 -19 -18
-8 -34 8 -42 44 -3 14 -19 81 -36 150 -17 69 -38 154 -46 190 -8 36 -25 111
-38 168 -17 71 -20 105 -13 110 15 11 70 28 146 46 131 31 146 31 165 3z
m-451 -96 c17 -19 36 -84 76 -256 12 -55 33 -140 45 -190 32 -127 40 -182 26
-199 -6 -7 -57 -28 -114 -46 -56 -18 -120 -38 -142 -45 -73 -23 -88 -2 -130
190 -14 66 -32 147 -40 180 -37 162 -58 296 -48 306 6 6 55 21 109 34 55 13
117 28 139 33 57 14 60 14 79 -7z m-465 -105 c11 -13 42 -138 76 -301 8 -38
24 -115 36 -170 35 -169 38 -193 21 -208 -15 -12 -65 -25 -205 -51 -43 -9 -82
-18 -86 -21 -11 -6 -59 49 -77 90 -7 16 -30 107 -50 200 -19 94 -44 210 -55
260 -11 49 -17 96 -14 103 2 7 17 17 32 23 55 22 247 77 304 88 4 0 12 -5 18
-13z m7073 -43 c16 -19 132 -469 152 -590 7 -40 -8 -52 -82 -68 -31 -7 -122
-27 -202 -45 -80 -18 -172 -38 -205 -45 -33 -7 -125 -27 -205 -45 -80 -18
-165 -36 -190 -41 -25 -5 -63 -13 -85 -18 -427 -106 -671 -164 -763 -182 -95
-20 -81 -49 -192 416 -51 214 -49 202 -31 219 15 14 217 63 836 202 110 24
247 55 305 69 58 13 206 47 330 75 124 28 241 54 260 59 51 13 55 13 72 -6z
m-7560 -90 c17 -20 22 -43 114 -473 19 -92 31 -136 37 -147 10 -16 -9 -34 -49
-44 -41 -11 -106 -25 -264 -58 -90 -19 -96 -20 -112 -3 -10 10 -36 105 -68
242 -28 124 -58 254 -66 289 -22 90 -15 107 49 126 46 13 323 82 338 84 3 1
13 -7 21 -16z m10353 -172 c171 -35 190 -43 208 -78 29 -55 168 -467 165 -486
-2 -11 -10 -24 -18 -28 -14 -7 -167 -50 -350 -98 -41 -11 -124 -34 -185 -51
-60 -17 -136 -36 -167 -42 -87 -17 -96 -5 -141 197 -9 39 -26 111 -37 160 -11
50 -28 122 -37 160 -8 39 -21 95 -29 125 -11 47 -11 57 1 69 14 14 374 99 425
100 14 0 88 -12 165 -28z m-7787 -78 c36 -51 293 -564 289 -576 -6 -20 -46
-35 -152 -57 -55 -12 -234 -55 -398 -96 -163 -40 -316 -75 -339 -76 -39 -3
-42 -1 -49 27 -152 607 -152 605 -134 625 11 12 57 28 133 45 65 14 135 30
157 35 146 35 225 48 268 43 39 -5 53 -2 85 20 69 47 112 50 140 10z m7067
-53 c7 -14 21 -59 30 -100 9 -41 23 -102 30 -135 37 -157 57 -246 71 -310 8
-38 20 -85 25 -103 13 -40 -5 -67 -49 -75 -15 -3 -54 -13 -87 -22 -72 -19
-163 -36 -495 -90 -47 -7 -104 -16 -126 -20 -40 -7 -42 -6 -72 36 -30 44 -157
172 -220 222 -61 49 -135 26 -116 -36 3 -12 56 -72 116 -134 l110 -111 -25
-16 c-31 -21 -171 -66 -203 -66 -19 0 -41 23 -100 103 -42 56 -90 117 -107
135 -32 33 -73 42 -95 20 -27 -27 -12 -69 58 -171 39 -55 70 -106 70 -113 0
-15 -39 -28 -155 -49 -49 -8 -109 -20 -132 -25 -66 -15 -91 -12 -107 13 -8 12
-35 108 -61 212 -25 105 -57 235 -70 290 -38 150 -44 193 -31 203 16 11 75 30
127 41 55 11 410 88 623 136 87 19 177 36 199 37 l41 3 50 -100 c48 -94 53
-100 84 -103 69 -7 78 31 32 146 -30 72 -30 76 -13 93 20 18 126 45 328 83 72
14 139 27 150 29 11 3 39 4 63 4 35 -2 46 -7 57 -27z m-4017 -42 c7 -7 12 -20
12 -30 0 -9 6 -37 14 -60 7 -24 23 -86 35 -138 12 -52 27 -116 33 -142 9 -36
9 -50 -1 -62 -15 -17 -44 -8 -341 114 -219 90 -331 142 -348 162 -25 31 -10
36 373 123 220 50 208 48 223 33z m-3981 -90 c17 -25 48 -136 123 -453 42
-179 42 -174 35 -196 -7 -22 -5 -21 -360 -109 -154 -39 -293 -74 -309 -80 -38
-12 -61 7 -71 58 -6 37 -117 497 -134 559 -7 24 -5 35 8 48 25 25 255 93 475
140 233 50 221 49 233 33z m3083 -122 c18 -23 25 -228 10 -311 -22 -120 -23
-173 -5 -262 16 -82 16 -86 -1 -103 -18 -16 -209 -81 -281 -95 -29 -6 -35 -2
-70 42 -40 51 -197 264 -321 435 -77 107 -79 121 -24 131 15 3 110 28 212 56
271 74 443 119 456 120 6 1 17 -6 24 -13z m223 -52 c91 -46 89 -40 49 -159
-30 -88 -33 -109 -24 -130 9 -20 19 -25 46 -25 41 0 46 6 86 105 40 102 45
111 62 107 16 -4 135 -50 163 -63 35 -16 339 -141 380 -156 22 -8 46 -20 54
-28 12 -12 9 -17 -20 -34 -19 -12 -43 -21 -55 -21 -11 0 -43 -6 -70 -14 -27
-8 -94 -24 -149 -36 -141 -31 -278 -63 -439 -101 l-138 -33 -18 22 c-39 47
-50 166 -25 267 8 35 14 111 15 186 0 69 3 129 7 132 10 11 21 8 76 -19z
m6854 -46 c9 -13 65 -158 83 -215 4 -15 43 -127 85 -248 88 -252 108 -321 99
-336 -7 -12 -22 -18 -154 -65 -52 -19 -102 -32 -110 -29 -21 7 -24 13 -202
430 -108 253 -147 354 -140 365 10 16 33 25 192 75 119 38 134 40 147 23z
m-11010 -20 c21 -25 30 -52 70 -208 38 -154 42 -179 29 -189 -12 -9 -30 -14
-136 -35 -36 -8 -101 -22 -145 -31 -125 -27 -137 -26 -157 15 -9 19 -32 110
-51 202 -32 154 -33 168 -18 181 21 18 294 83 362 86 15 1 34 -8 46 -21z
m6965 -15 c16 -18 147 -527 173 -674 6 -35 6 -36 -37 -51 -24 -9 -99 -30 -168
-47 -69 -16 -235 -57 -370 -90 -296 -73 -324 -78 -336 -60 -5 8 -27 86 -49
173 -33 132 -44 162 -65 178 -14 10 -75 31 -135 47 -115 31 -153 42 -300 86
-73 23 -97 35 -129 67 -38 39 -38 40 -20 58 20 19 280 87 589 154 295 64 576
126 685 151 129 29 143 30 162 8z m-7517 -92 c9 -11 24 -53 32 -93 17 -86 20
-99 107 -503 37 -170 74 -320 82 -333 20 -31 40 -37 71 -23 25 12 26 14 20 84
-3 40 -20 133 -36 207 -30 131 -30 135 -12 151 16 13 235 65 363 86 62 10 63
8 118 -227 46 -197 129 -539 142 -583 19 -63 37 -56 -427 -167 -201 -48 -522
-124 -571 -135 -31 -7 -49 20 -67 100 -74 319 -180 784 -203 885 -8 36 -20 92
-28 125 -52 228 -66 303 -61 322 6 26 20 30 225 73 80 17 159 35 175 39 45 13
50 13 70 -8z m11115 -76 c33 -65 44 -89 92 -205 11 -25 23 -54 28 -65 5 -11
57 -132 115 -270 59 -137 113 -258 122 -267 27 -30 87 -21 246 33 139 48 149
50 167 34 10 -9 20 -26 23 -38 5 -20 97 -288 168 -487 53 -147 55 -158 30
-184 -12 -12 -36 -28 -54 -33 -17 -6 -76 -27 -129 -46 -89 -32 -98 -34 -111
-18 -21 25 -99 278 -101 328 -1 34 -7 50 -25 64 -33 27 -50 22 -271 -71 -102
-43 -195 -81 -207 -84 -28 -9 -41 11 -83 124 -90 241 -255 680 -379 1005 -34
88 -59 166 -56 173 2 7 17 17 32 23 42 16 283 58 323 56 33 -2 37 -7 70 -72z
m-512 -145 c65 -159 87 -230 75 -249 -10 -17 -203 -117 -480 -249 -203 -96
-213 -99 -235 -75 -8 10 -50 122 -91 248 -71 216 -75 231 -59 246 17 17 93 39
497 148 258 69 235 75 293 -69z m-11210 88 c5 -7 24 -71 41 -143 50 -208 52
-213 116 -500 19 -88 40 -178 45 -200 5 -22 19 -80 30 -130 11 -49 27 -117 35
-150 7 -33 21 -94 30 -135 9 -41 21 -94 27 -118 9 -35 8 -46 -3 -57 -14 -14
-103 -38 -254 -70 -91 -18 -113 -23 -285 -64 -284 -66 -263 -62 -278 -47 -14
14 -23 47 -67 246 -14 63 -36 160 -50 215 -13 55 -31 136 -40 180 -16 78 -45
209 -65 290 -5 22 -16 69 -24 105 -34 146 -58 249 -73 314 l-16 69 24 21 c34
29 493 135 517 119 11 -7 32 -72 62 -191 26 -99 52 -187 59 -196 16 -19 62
-21 79 -4 7 7 12 29 12 50 0 32 -35 194 -70 328 -7 26 -6 38 6 51 24 27 124
38 142 17z m3310 -70 c19 -21 238 -479 267 -560 18 -48 3 -61 -85 -76 -36 -6
-108 -20 -160 -31 -52 -10 -109 -21 -126 -24 -53 -10 -56 -3 -119 268 -14 61
-35 146 -46 190 -35 147 -38 173 -20 189 13 12 87 33 206 59 43 10 62 6 83
-15z m3239 -70 c11 -13 30 -41 41 -63 11 -22 29 -48 39 -58 20 -17 209 -79
428 -139 61 -16 117 -37 126 -46 9 -10 23 -46 32 -82 46 -183 49 -202 38 -213
-17 -17 -183 -57 -446 -106 -33 -6 -78 -16 -100 -21 -22 -5 -79 -17 -128 -26
-96 -18 -111 -14 -120 34 -3 15 -12 54 -20 87 -8 33 -22 89 -30 125 -8 36 -29
126 -47 200 -53 220 -61 263 -47 277 12 12 152 50 193 52 11 1 30 -9 41 -21z
m-3668 -25 c8 -16 62 -229 112 -443 10 -47 24 -103 30 -124 16 -57 -4 -71
-147 -107 -174 -44 -202 -48 -212 -35 -14 19 -48 136 -125 436 -48 185 -49
191 -13 208 37 18 283 81 318 82 16 0 31 -7 37 -17z m3295 -55 c8 -13 28 -84
46 -158 17 -74 35 -148 40 -164 8 -23 6 -34 -7 -48 -25 -28 -19 -30 -228 50
-108 41 -288 114 -355 144 -87 39 -97 67 -30 81 14 2 86 19 160 37 178 43 332
78 347 79 7 1 19 -9 27 -21z m4101 2 c9 -10 75 -189 146 -397 457 -1349 422
-1254 503 -1396 65 -115 139 -289 181 -424 11 -37 11 -44 -4 -57 -21 -19 -461
-166 -497 -166 -31 0 -38 21 -124 385 -17 72 -37 157 -45 190 -8 33 -26 107
-39 165 -14 58 -36 153 -50 213 -14 59 -37 155 -51 215 -14 59 -32 134 -40
167 -48 196 -92 388 -118 515 -59 279 -78 369 -87 400 -20 75 -23 135 -7 148
12 10 179 59 208 62 3 0 14 -9 24 -20z m-7913 -67 c8 -10 22 -43 31 -73 38
-133 137 -516 137 -532 0 -16 -53 -41 -113 -54 -34 -7 -106 -24 -160 -37 l-98
-25 -15 23 c-17 26 -146 594 -139 612 6 19 58 37 190 67 66 16 125 29 130 31
19 6 22 5 37 -12z m7535 -15 c11 -14 18 -41 35 -131 10 -50 9 -60 -7 -77 -10
-11 -24 -20 -32 -20 -8 0 -37 -8 -66 -17 -46 -15 -73 -39 -251 -220 -218 -223
-238 -246 -259 -318 -7 -27 -20 -52 -28 -56 -8 -4 -48 -14 -89 -23 -79 -17
-228 -50 -295 -65 -34 -8 -132 -29 -212 -47 -16 -3 -27 3 -37 18 -16 25 -186
608 -186 639 0 38 19 43 412 114 43 8 124 28 180 45 261 80 275 83 548 130
254 43 274 45 287 28z m-4413 -130 c57 -42 126 -74 356 -166 254 -102 293
-115 360 -120 44 -2 82 -10 91 -18 18 -16 53 -151 47 -180 -2 -11 -19 -26 -38
-36 -37 -17 -443 -118 -477 -118 -11 0 -50 23 -88 50 -113 85 -169 120 -191
120 -32 0 -58 -34 -49 -67 6 -25 20 -40 100 -107 47 -39 26 -51 -162 -96 -50
-13 -98 -20 -105 -18 -7 3 -58 70 -114 149 -55 79 -156 222 -223 317 -99 139
-121 175 -111 187 20 24 437 152 504 154 19 1 51 -15 100 -51z m-3612 25 c16
-19 23 -50 93 -363 9 -41 23 -102 30 -135 23 -102 23 -113 5 -130 -25 -22
-340 -98 -366 -88 -17 6 -13 -6 -87 293 -83 336 -81 326 -65 337 9 6 337 97
369 102 3 1 13 -7 21 -16z m9480 -80 c8 -10 33 -67 56 -128 22 -60 85 -229
140 -375 55 -146 102 -277 106 -292 8 -35 -1 -41 -169 -113 -71 -31 -138 -63
-147 -72 -20 -18 -24 -86 -9 -125 20 -49 70 -216 77 -255 8 -53 1 -57 -183
-121 l-142 -49 -19 21 c-50 53 -123 220 -203 463 -74 223 -82 254 -69 268 8 8
53 28 99 45 46 16 90 35 97 41 22 18 16 91 -15 186 -16 48 -39 122 -51 163
-11 41 -26 86 -31 99 -7 16 -6 28 3 39 12 14 422 222 438 222 4 0 14 -8 22
-17z m-3015 -145 c16 -23 101 -308 172 -578 27 -106 27 -106 -197 -151 -46 -9
-57 -8 -73 7 -26 24 -331 603 -327 622 2 9 17 20 33 24 17 4 100 25 185 47
170 44 193 47 207 29z m1631 -17 c13 -8 55 -174 67 -268 7 -51 6 -52 -22 -58
-15 -4 -37 -10 -48 -14 -11 -5 -96 -25 -190 -45 -93 -20 -186 -41 -205 -46
-72 -19 -88 -20 -99 -7 -8 10 31 56 167 200 97 102 189 195 204 206 21 17 63
32 108 40 3 0 11 -3 18 -8z m818 -160 c8 -20 31 -87 50 -150 33 -112 34 -116
16 -133 -10 -11 -40 -25 -65 -33 -45 -14 -48 -13 -62 8 -17 27 -92 230 -101
275 -6 31 -5 33 57 61 72 33 81 30 105 -28z m-2993 12 c13 -21 72 -130 132
-243 59 -113 123 -234 142 -268 37 -68 37 -87 1 -101 -22 -9 -178 -44 -245
-55 -42 -7 -56 8 -134 139 -33 55 -85 141 -116 190 -163 265 -167 272 -140
292 14 12 26 15 172 53 149 39 159 39 188 -7z m-4001 -283 c168 -336 164 -326
133 -346 -12 -8 -126 -40 -252 -70 -125 -30 -241 -59 -258 -65 -43 -13 -58 9
-85 120 -30 124 -69 162 -116 110 -18 -20 -18 -23 0 -117 10 -53 18 -108 19
-122 3 -37 -23 -47 -268 -103 -38 -9 -110 -25 -160 -37 -49 -11 -108 -25 -130
-30 -22 -5 -80 -19 -130 -30 -49 -11 -108 -25 -130 -30 -22 -5 -80 -19 -130
-30 -49 -11 -108 -25 -130 -30 -22 -5 -80 -19 -130 -30 -49 -11 -108 -25 -130
-30 -22 -5 -80 -19 -130 -30 -49 -11 -108 -25 -130 -30 -151 -35 -162 -32
-150 47 17 113 135 637 149 657 12 19 48 31 213 70 109 27 277 68 374 91 204
51 248 56 259 35 5 -8 18 -51 30 -95 13 -44 29 -88 38 -97 20 -24 55 -23 77 2
17 19 17 24 0 121 -15 86 -15 103 -4 115 26 26 953 237 1014 231 16 -2 50 -63
157 -277z m3533 125 c23 -44 101 -177 173 -295 73 -118 132 -222 132 -232 0
-26 -1 -27 -165 -64 -153 -35 -138 -36 -188 15 -24 25 -73 82 -108 126 -35 44
-132 151 -216 238 -84 87 -153 162 -153 166 0 19 35 34 122 53 198 41 323 70
328 74 14 15 38 -10 75 -81z m-666 -94 c63 -53 389 -402 445 -476 l46 -60 -26
-22 c-14 -13 -33 -23 -42 -23 -10 0 -42 -6 -72 -14 -30 -7 -104 -23 -165 -36
-60 -12 -120 -26 -132 -31 -35 -13 -40 0 -108 261 -95 363 -100 388 -80 409 9
11 31 22 49 24 17 2 33 5 35 5 2 1 24 -15 50 -37z m-282 -33 c12 -15 29 -72
78 -258 20 -74 46 -175 59 -225 13 -49 40 -157 60 -240 20 -82 41 -165 47
-183 9 -28 8 -37 -8 -54 -29 -32 -187 -136 -213 -140 -14 -1 -31 -15 -40 -30
-13 -25 -13 -31 0 -55 13 -23 24 -29 58 -31 37 -3 53 4 134 57 98 63 111 65
121 13 3 -15 14 -61 25 -102 19 -75 45 -188 57 -246 5 -29 0 -37 -81 -113 -85
-80 -87 -82 -107 -64 -21 19 -165 198 -812 1013 -98 124 -205 258 -238 299
-89 113 -93 119 -75 137 8 8 79 31 158 51 l143 36 17 -21 c10 -12 36 -74 59
-139 55 -154 72 -181 179 -285 98 -96 128 -108 157 -64 25 37 11 64 -86 170
-50 55 -94 107 -99 116 -23 44 -80 226 -75 241 7 22 5 21 240 80 208 52 228
55 242 37z m3695 -35 c9 -10 23 -47 31 -83 64 -265 102 -429 110 -476 8 -43
-14 -61 -105 -83 -128 -32 -143 -33 -160 -14 -9 10 -77 141 -152 291 -143 285
-145 292 -95 307 39 13 314 73 335 74 11 1 28 -7 36 -16z m-543 -117 c21 -26
281 -550 281 -567 0 -24 -18 -34 -85 -47 -102 -20 -192 -39 -400 -88 -343 -79
-425 -96 -440 -90 -8 3 -21 21 -29 40 -17 41 -142 484 -151 538 -7 35 -5 38
26 52 19 9 187 49 374 90 187 41 349 77 360 79 38 9 53 7 64 -7z m2675 -28
c13 -20 27 -63 80 -235 10 -32 10 -47 2 -57 -6 -8 -82 -43 -169 -77 -135 -53
-160 -60 -172 -48 -7 8 -36 74 -65 148 -41 108 -48 137 -38 146 22 20 309 144
335 145 7 0 19 -10 27 -22z m-10726 -51 c11 -12 3 -68 -32 -227 -59 -276 -79
-372 -88 -420 -15 -84 -25 -90 -183 -125 -33 -7 -91 -20 -130 -29 -38 -9 -101
-23 -140 -31 -38 -8 -97 -21 -130 -29 -33 -8 -125 -28 -205 -46 -80 -18 -170
-38 -200 -45 -104 -24 -205 -47 -270 -61 -36 -8 -94 -21 -130 -29 -36 -8 -96
-22 -135 -30 -38 -8 -87 -19 -107 -24 -47 -11 -61 3 -78 79 -7 30 -18 80 -25
110 -7 30 -25 109 -39 175 -15 66 -34 149 -42 184 -27 112 -29 110 190 161
139 31 150 30 159 -18 31 -163 50 -202 97 -202 54 0 60 29 33 166 -16 83 -16
86 3 104 14 14 89 35 273 76 211 47 255 54 266 43 6 -8 22 -58 35 -112 18 -79
27 -101 47 -114 19 -13 29 -14 48 -5 34 16 39 49 21 137 -9 43 -16 88 -16 100
0 49 -9 46 515 169 105 25 201 47 215 49 14 2 28 5 31 6 4 0 11 -5 17 -12z
m7089 -129 c11 -15 21 -48 64 -195 16 -57 43 -151 60 -210 44 -154 53 -202 39
-218 -6 -8 -36 -17 -67 -21 -46 -5 -58 -4 -73 12 -11 11 -78 142 -150 293
-118 244 -130 275 -117 289 9 8 60 25 114 38 119 27 118 27 130 12z m3145 -15
c18 -20 61 -120 90 -207 18 -54 18 -60 4 -75 -27 -26 -249 -111 -263 -100 -10
9 -93 248 -93 267 1 20 26 37 126 82 60 27 112 49 115 50 3 0 13 -8 21 -17z
m-3457 -228 c152 -302 207 -425 196 -439 -14 -17 -210 -73 -276 -78 -35 -3
-41 0 -54 27 -8 17 -73 151 -143 299 -95 198 -126 271 -118 281 11 13 46 24
180 54 136 31 123 40 215 -144z m-534 48 c8 -10 28 -45 44 -78 15 -33 64 -134
108 -225 138 -288 142 -304 88 -316 -14 -3 -51 -12 -81 -20 -30 -7 -84 -20
-120 -28 -36 -8 -121 -29 -190 -45 -69 -17 -197 -46 -285 -66 -222 -49 -240
-54 -323 -88 -63 -25 -76 -27 -87 -16 -14 14 -50 152 -61 231 -6 41 -4 46 26
71 32 28 244 156 405 245 102 56 103 56 142 -22 34 -68 61 -96 93 -96 71 0 66
51 -22 232 -58 120 -69 150 -59 162 10 12 76 31 246 69 41 9 62 7 76 -10z
m-431 -152 c0 -15 -34 -38 -205 -136 -283 -163 -295 -169 -310 -154 -13 15
-39 106 -50 177 -4 27 -3 48 5 57 15 18 78 36 275 79 221 48 224 48 258 14 15
-16 27 -32 27 -37z m-4052 -78 c26 -38 241 -421 285 -510 27 -54 33 -73 24
-80 -7 -6 -59 -22 -117 -38 -58 -15 -145 -39 -195 -52 -87 -23 -308 -82 -410
-108 -27 -7 -95 -25 -150 -40 -156 -42 -355 -95 -410 -110 -151 -40 -271 -69
-455 -111 -63 -14 -124 -28 -135 -30 -12 -3 -27 2 -37 13 -14 16 -56 173 -137
513 -36 154 -36 156 -7 175 30 20 70 30 691 171 83 19 177 41 210 49 33 8 141
33 240 56 99 22 248 57 330 76 163 37 223 50 242 52 6 1 20 -11 31 -26z m7020
-10 c10 -18 43 -153 117 -468 43 -180 44 -192 26 -208 -9 -8 -27 -17 -41 -20
-14 -3 -87 -21 -164 -41 -76 -19 -143 -33 -148 -30 -17 11 -30 59 -83 329 -63
316 -69 355 -57 374 11 15 249 78 304 80 26 1 40 -4 46 -16z m1629 -7 c10 -13
43 -71 73 -129 49 -94 53 -108 40 -121 -13 -13 -84 -43 -420 -178 -120 -48
-263 -108 -288 -121 -35 -17 -53 0 -85 79 -59 143 -78 207 -65 220 7 7 94 42
193 78 216 80 472 175 500 186 30 13 32 12 52 -14z m-2120 -98 c13 -17 36
-116 79 -338 19 -102 39 -203 44 -225 29 -124 26 -133 -46 -153 -53 -15 -79
-15 -92 1 -11 12 -42 161 -112 521 -34 178 -33 181 31 196 52 12 86 11 96 -2z
m-278 -79 c10 -17 22 -54 25 -82 4 -29 11 -68 16 -87 5 -19 25 -120 45 -225
19 -104 39 -209 44 -233 8 -39 6 -44 -17 -62 -13 -11 -32 -20 -41 -20 -8 0
-70 -13 -136 -30 -282 -69 -296 -72 -311 -59 -16 13 -48 113 -133 419 -75 270
-74 265 -58 279 17 13 251 73 492 124 44 10 56 6 74 -24z m-705 -152 c15 -21
116 -363 171 -574 22 -86 23 -98 10 -113 -15 -17 -143 -46 -153 -35 -7 7 -22
61 -57 205 -14 58 -39 161 -55 230 -65 265 -66 290 -16 290 11 0 28 5 36 10
25 16 49 11 64 -13z m-247 -119 c6 -24 18 -72 27 -108 126 -523 124 -511 104
-527 -18 -14 -135 -42 -207 -49 -64 -7 -66 -6 -88 56 -21 55 -170 552 -178
586 -4 21 -1 35 9 43 8 7 75 27 148 46 130 32 134 32 153 14 11 -10 26 -37 32
-61z m-7199 40 c13 -17 34 -92 71 -248 17 -69 43 -181 60 -250 37 -159 40
-181 21 -190 -24 -12 -78 -26 -185 -50 -99 -21 -201 -45 -430 -100 -348 -83
-448 -102 -461 -87 -6 7 -21 50 -33 97 -23 87 -45 120 -82 120 -10 0 -26 -11
-35 -25 -17 -26 -16 -41 6 -149 11 -54 10 -60 -8 -78 -11 -11 -48 -26 -83 -34
-267 -58 -272 -59 -286 -42 -14 17 -80 280 -139 553 -8 39 -19 82 -23 97 -15
46 -8 49 349 128 291 64 495 110 910 205 291 66 332 72 348 53z m6719 -80 c15
-19 55 -141 144 -440 17 -57 34 -113 39 -124 18 -45 22 -111 8 -120 -12 -9
-36 -14 -213 -50 -44 -9 -111 -22 -150 -30 -206 -42 -223 -43 -243 -20 -17 19
-182 386 -249 554 -22 54 -23 66 -12 77 13 11 176 53 529 135 151 34 135 33
147 18z m-812 -211 c14 -22 113 -243 237 -530 71 -166 83 -181 138 -185 26 -2
170 22 345 57 299 61 299 61 320 41 22 -20 23 -28 52 -376 7 -74 -11 -85 -79
-46 -45 25 -130 57 -203 75 -11 3 -76 21 -145 41 l-125 36 -190 -10 c-176 -11
-284 -28 -362 -60 -28 -12 -98 18 -134 57 -15 15 -75 96 -135 178 -59 83 -150
208 -201 278 -51 71 -93 134 -93 141 0 7 14 25 31 42 l31 29 79 -83 c66 -71
83 -83 106 -80 23 2 28 8 31 33 2 24 -10 46 -63 110 -36 44 -65 84 -65 90 0
26 73 78 167 120 150 68 232 81 258 42z m-3608 -9 c11 -13 89 -153 173 -312
158 -298 164 -316 114 -324 -10 -2 -28 -7 -39 -12 -11 -4 -54 -16 -95 -25 -41
-9 -103 -23 -138 -32 -72 -17 -87 -11 -97 40 -4 18 -11 46 -16 62 -5 17 -14
49 -19 72 -13 52 -33 73 -70 73 -49 0 -56 -28 -35 -139 9 -53 21 -106 26 -118
5 -14 4 -25 -4 -31 -7 -5 -75 -24 -152 -42 -77 -18 -181 -43 -232 -56 -130
-33 -186 -39 -200 -23 -6 8 -41 136 -77 284 -37 149 -71 285 -76 304 -16 61
-56 46 525 199 321 85 372 98 386 101 3 0 15 -9 26 -21z m6842 -215 c78 -326
114 -476 126 -528 40 -162 39 -195 -6 -195 -11 0 -27 -4 -37 -9 -18 -10 -130
-36 -197 -47 -45 -6 -58 3 -68 46 -3 14 -12 54 -20 90 -8 36 -27 119 -41 185
-15 66 -33 147 -40 180 -8 33 -21 96 -30 140 -10 44 -22 99 -28 122 -12 47 -7
60 30 75 30 11 193 54 232 60 37 6 55 -20 79 -119z m-478 0 c16 -19 29 -71 79
-303 18 -80 45 -203 61 -275 39 -172 45 -228 28 -241 -8 -6 -59 -21 -114 -33
-55 -12 -113 -26 -130 -31 -24 -8 -33 -7 -46 8 -9 9 -35 90 -58 179 -58 227
-63 238 -118 231 -48 -5 -50 -43 -9 -214 20 -82 41 -164 47 -182 13 -40 -5
-66 -49 -75 -15 -3 -56 -13 -92 -22 -36 -8 -96 -22 -135 -29 -64 -12 -72 -12
-88 4 -18 16 -205 649 -222 748 -7 41 -6 43 27 56 18 8 188 51 378 95 190 45
359 86 375 90 45 13 51 13 66 -6z m-7433 -65 c13 -17 22 -50 88 -313 30 -121
59 -238 65 -259 17 -62 13 -64 -236 -121 -111 -25 -112 -25 -123 -12 -16 19
-98 306 -158 555 -18 77 -28 70 206 133 119 32 143 34 158 17z m-501 -130 c10
-13 40 -118 112 -388 56 -208 56 -208 35 -231 -9 -10 -24 -19 -32 -19 -14 0
-258 -62 -317 -81 -49 -15 -51 -9 -130 326 -26 110 -53 223 -60 252 -11 46
-11 54 4 67 16 14 302 84 352 85 15 1 31 -5 36 -11z m-1312 -308 c9 -10 24
-47 31 -82 33 -151 35 -162 22 -173 -7 -6 -71 -25 -143 -43 -473 -115 -632
-153 -647 -156 -10 -2 -21 1 -27 8 -7 9 -40 135 -66 252 -3 12 2 27 11 34 15
13 727 177 775 179 14 1 34 -8 44 -19z"/>
<path d="M11830 14254 c51 -17 102 -15 108 4 3 9 -16 12 -75 11 l-78 -1 45
-14z"/>
<path d="M13898 5089 c-10 -5 -39 -16 -64 -24 -58 -17 -84 -41 -84 -75 0 -51
45 -64 125 -36 36 13 40 18 43 50 2 20 2 50 0 66 -3 24 -6 27 -20 19z"/>
<path d="M5345 456 c-11 -17 -19 -66 -25 -158 -5 -73 -12 -170 -15 -216 l-6
-82 55 0 c64 0 60 -7 71 150 17 253 18 300 5 315 -20 24 -67 19 -85 -9z"/>
<path d="M4525 10 c-4 -6 12 -10 40 -10 28 0 44 4 40 10 -3 6 -21 10 -40 10
-19 0 -37 -4 -40 -10z"/>
</g>
</svg>
