<?xml version="1.0" standalone="no"?>
<!DOCTYPE svg PUBLIC "-//W3C//DTD SVG 20010904//EN"
 "http://www.w3.org/TR/2001/REC-SVG-20010904/DTD/svg10.dtd">
<svg version="1.0" xmlns="http://www.w3.org/2000/svg"
 width="3000.000000pt" height="1427.000000pt" viewBox="0 0 3000.000000 1427.000000"
 preserveAspectRatio="xMidYMid meet">

<g transform="translate(0.000000,1427.000000) scale(0.100000,-0.100000)"
fill="#000000" stroke="none">
<path d="M9324 7660 c-139 -43 -226 -194 -194 -335 20 -88 129 -288 204 -373
14 -15 34 -38 45 -52 l21 -25 21 25 c11 14 31 37 45 52 75 85 184 285 204 373
38 170 -82 331 -255 341 -33 2 -74 -1 -91 -6z m149 -332 c-70 -70 -131 -128
-135 -128 -8 0 -128 121 -128 130 0 4 11 17 25 30 l25 24 35 -37 c19 -20 38
-37 43 -37 4 0 52 45 107 100 l99 100 28 -27 28 -27 -127 -128z"/>
<path d="M9210 6825 l0 -35 190 0 190 0 0 35 0 35 -190 0 -190 0 0 -35z"/>
</g>
</svg>
