<?xml version="1.0" standalone="no"?>
<!DOCTYPE svg PUBLIC "-//W3C//DTD SVG 20010904//EN"
 "http://www.w3.org/TR/2001/REC-SVG-20010904/DTD/svg10.dtd">
<svg version="1.0" xmlns="http://www.w3.org/2000/svg"
 width="1166.000000pt" height="1427.000000pt" viewBox="0 0 1166.000000 1427.000000"
 preserveAspectRatio="xMidYMid meet">

<g transform="translate(0.000000,1427.000000) scale(0.100000,-0.100000)"
fill="#000000" stroke="none">
<path d="M2745 13968 c-281 -409 -310 -447 -365 -475 -69 -35 -216 -84 -233
-77 -9 3 -18 12 -21 21 -10 24 22 131 61 206 32 62 34 70 20 84 -14 14 -18 13
-40 -11 -53 -57 -127 -227 -127 -292 0 -58 -38 -86 -225 -168 -640 -279 -1285
-555 -1313 -561 -46 -10 -149 41 -175 85 -36 59 -106 61 -128 3 -21 -57 14
-95 79 -85 25 3 54 -7 126 -43 149 -76 112 -84 631 145 540 239 986 411 1070
414 l50 1 -1 -40 c0 -22 -15 -87 -32 -145 -17 -58 -41 -142 -53 -188 -25 -97
-57 -140 -187 -257 -136 -121 -180 -134 -522 -160 -348 -26 -461 -52 -697
-165 -108 -51 -132 -68 -211 -144 l-90 -87 -78 27 c-64 21 -90 25 -133 20 -78
-9 -168 -53 -149 -72 2 -2 48 6 102 17 91 20 100 20 139 5 23 -9 56 -27 72
-40 l30 -25 -72 -143 c-39 -79 -83 -154 -98 -168 l-25 -24 -68 22 c-38 12 -71
22 -75 22 -4 0 -7 -201 -7 -446 l0 -446 29 7 c22 5 35 0 57 -18 l28 -24 -57
-79 -57 -79 0 -148 c0 -109 4 -157 15 -184 19 -45 19 -92 0 -117 -10 -13 -15
-43 -15 -87 0 -64 1 -67 27 -74 14 -3 49 -26 76 -51 34 -30 62 -46 89 -50 49
-8 68 -27 68 -67 0 -47 -30 -89 -101 -138 -34 -24 -71 -56 -82 -70 -21 -29
-35 -113 -20 -122 6 -4 31 7 57 23 43 28 54 30 139 30 236 2 408 18 552 54
159 40 251 81 499 224 87 50 174 95 194 98 47 9 199 -14 218 -33 9 -9 12 -23
8 -32 -20 -48 -13 -176 25 -519 40 -356 46 -386 81 -427 27 -32 140 -288 140
-318 0 -23 -6 -28 -52 -41 -29 -9 -249 -47 -488 -86 -604 -98 -711 -127 -1025
-280 -169 -83 -371 -200 -392 -228 -10 -12 -13 -84 -13 -280 l0 -265 188 184
c213 210 302 280 302 237 0 -7 -110 -121 -245 -255 l-245 -242 0 -179 c0 -98
3 -182 7 -185 8 -8 32 14 373 339 314 300 358 338 542 461 289 195 303 200
748 267 129 20 262 40 295 46 65 11 414 27 1430 65 363 13 698 27 745 30 47 3
91 1 99 -4 34 -22 -4 -41 -236 -116 -312 -102 -343 -114 -643 -260 l-255 -125
-193 -44 c-180 -42 -1192 -303 -1347 -347 -38 -11 -205 -68 -370 -127 -234
-83 -343 -128 -495 -203 -209 -104 -458 -244 -607 -342 l-93 -61 0 -133 c0
-73 2 -133 5 -133 3 0 49 29 103 65 53 36 104 65 114 65 17 0 79 -75 290 -353
70 -93 128 -177 128 -186 0 -18 -150 -165 -191 -186 -32 -17 -20 -28 -219 215
-149 183 -209 250 -222 250 -4 0 -8 -41 -8 -91 l0 -91 69 -76 c74 -84 225
-272 240 -301 8 -14 -4 -31 -72 -97 -45 -44 -97 -93 -115 -109 l-32 -29 -38
37 c-21 21 -41 34 -45 31 -4 -4 -7 -47 -7 -95 0 -65 5 -102 20 -140 26 -66 60
-209 60 -254 0 -42 -14 -44 -52 -8 l-28 27 0 -96 0 -95 53 -12 c28 -6 58 -15
65 -20 15 -9 52 -141 52 -188 0 -38 -16 -49 -105 -73 l-60 -17 -3 -56 c-3 -66
-6 -65 103 -42 94 20 94 20 111 -21 33 -79 134 -531 134 -599 0 -31 -4 -35
-52 -53 -29 -10 -108 -32 -176 -47 l-122 -28 0 -59 c0 -32 4 -58 9 -58 6 0 76
15 158 34 81 19 162 37 180 41 26 5 36 1 62 -24 38 -37 84 -42 101 -11 14 26
8 60 -86 472 -41 180 -74 345 -74 367 l0 39 63 21 c95 31 199 51 218 41 20
-11 31 -52 119 -435 39 -170 105 -448 146 -618 41 -171 74 -324 74 -343 0 -30
-4 -34 -48 -48 -42 -14 -702 -165 -859 -197 l-63 -13 0 -57 c0 -32 4 -60 8
-63 5 -3 42 4 83 14 240 61 1699 384 1787 396 49 6 52 5 61 -20 16 -41 120
-501 127 -560 7 -57 8 -56 -61 -77 -24 -8 -1238 -297 -1697 -405 -97 -23 -120
-25 -133 -14 -16 13 -46 106 -116 358 -23 83 -46 152 -51 152 -4 0 -8 -97 -8
-215 0 -169 3 -223 15 -252 8 -19 15 -46 15 -58 0 -12 -7 -28 -15 -35 -19 -16
-21 -108 -2 -116 7 -2 42 2 78 11 72 17 98 18 117 7 7 -5 26 -60 43 -122 17
-63 35 -122 40 -132 15 -27 56 -34 79 -13 26 23 25 57 -4 180 -13 55 -21 105
-19 112 9 23 131 58 478 138 132 31 456 107 720 169 606 144 552 135 569 94
19 -45 126 -510 133 -575 4 -34 1 -58 -6 -67 -15 -18 -84 -35 -991 -236 -399
-89 -821 -184 -939 -213 -259 -61 -231 -75 -276 135 -9 43 -21 75 -26 72 -5
-3 -9 -95 -9 -205 0 -186 1 -200 18 -195 43 14 279 66 299 66 17 0 26 -11 41
-52 11 -29 25 -77 32 -107 14 -61 39 -91 75 -91 41 0 51 37 36 123 -19 107
-24 164 -15 170 12 7 859 195 915 202 53 8 49 14 85 -115 13 -47 31 -91 41
-97 23 -18 48 -16 68 4 18 17 18 24 -1 184 -6 52 -5 58 15 69 45 23 634 154
660 145 9 -2 22 -14 29 -25 13 -22 142 -577 142 -615 0 -14 -9 -29 -20 -35
-11 -6 -109 -31 -218 -55 -108 -24 -361 -83 -562 -130 -410 -96 -1369 -320
-1530 -357 l-105 -24 -3 -108 -3 -108 33 6 c18 3 62 8 98 12 l66 7 18 -42 19
-41 59 0 60 0 -7 32 c-4 18 -9 40 -11 49 -7 25 21 47 79 64 69 20 1489 352
1593 372 44 9 88 14 96 11 8 -4 27 -44 42 -92 14 -46 33 -92 42 -100 21 -21
47 -20 67 2 20 22 21 49 5 144 -10 63 -10 72 5 83 26 19 276 78 301 71 38 -10
716 -491 716 -508 0 -14 -58 -35 -207 -74 -76 -20 -145 -40 -153 -45 -9 -5
155 -9 384 -9 386 0 399 1 383 18 -23 25 -21 41 6 52 19 9 392 88 1131 241
104 21 193 36 198 33 15 -10 34 -66 69 -207 l33 -137 177 0 c149 0 185 3 233
20 82 28 489 130 520 130 31 0 51 -33 61 -103 l7 -47 59 0 c53 0 59 2 59 21 0
12 -25 134 -55 271 -30 137 -55 260 -55 274 0 30 48 54 109 54 48 0 35 34 125
-350 l62 -265 52 -3 c39 -2 54 1 58 12 3 8 -17 114 -46 236 -54 233 -80 360
-80 390 0 22 46 39 205 75 147 33 153 33 171 -11 13 -32 90 -335 154 -611 l22
-93 86 0 c68 0 98 5 147 25 89 35 293 87 935 235 802 186 1045 240 1073 240
16 0 26 -7 30 -21 3 -11 -1 -109 -9 -217 -20 -288 -23 -262 35 -262 28 0 53 4
56 10 7 12 45 472 45 554 0 58 -5 69 -162 365 -160 304 -274 513 -487 896 -61
110 -110 207 -109 215 2 10 41 23 117 42 191 46 174 51 256 -74 39 -58 99
-154 135 -213 36 -59 75 -118 87 -131 30 -33 79 -33 94 0 15 32 -4 72 -130
283 -56 93 -101 178 -101 190 0 17 10 25 48 37 90 29 175 45 192 36 20 -11 67
-82 194 -295 l95 -160 -45 -44 c-49 -49 -63 -83 -44 -106 16 -19 51 -19 97 0
19 8 44 15 54 15 19 0 59 -49 59 -74 0 -8 -24 -31 -54 -50 -56 -36 -72 -61
-61 -96 10 -33 49 -35 128 -5 l72 26 33 -38 c52 -61 112 -154 112 -174 0 -12
-44 -54 -118 -113 -130 -105 -152 -134 -127 -172 29 -44 52 -36 200 71 146
105 139 103 181 58 37 -40 39 -57 13 -120 -28 -68 22 -104 92 -67 39 19 40 18
182 -116 90 -85 108 -107 105 -128 -2 -20 -36 -51 -143 -134 -173 -135 -252
-211 -265 -258 -6 -19 -13 -79 -17 -132 l-6 -98 52 0 c61 0 65 6 76 115 4 39
13 80 21 92 17 27 51 38 69 23 18 -15 65 -160 65 -201 0 -29 0 -29 60 -29 l60
0 0 31 c0 35 -20 117 -56 234 l-26 80 53 47 c86 78 168 129 189 118 24 -13
299 -302 397 -417 l78 -93 137 0 c75 0 139 3 141 7 3 5 -40 62 -94 127 -55 66
-99 125 -99 132 0 13 31 24 71 24 21 0 55 -30 164 -145 l137 -145 64 0 c58 0
64 2 64 21 0 11 -36 60 -84 113 -86 96 -112 133 -101 144 4 4 47 9 96 10 l89
4 0 103 0 103 -220 7 -220 7 -219 232 c-340 360 -319 332 -621 811 -239 381
-220 350 -361 590 -294 505 -279 477 -485 877 -230 447 -310 595 -430 799
-163 276 -253 507 -309 784 -23 115 -46 202 -64 240 -30 64 -380 562 -508 723
-152 191 -392 472 -587 686 -92 101 -276 262 -531 466 -230 183 -295 229 -445
307 -242 127 -347 187 -585 338 -132 84 -334 210 -450 280 -237 143 -276 170
-283 197 -3 12 -14 18 -33 18 -41 0 -38 26 4 33 17 3 66 14 107 25 152 39 147
39 204 -26 78 -87 175 -179 234 -218 30 -20 198 -112 375 -204 177 -92 356
-188 398 -212 75 -45 581 -413 782 -569 105 -82 311 -269 503 -456 103 -101
270 -301 561 -671 149 -189 533 -736 596 -847 24 -44 88 -168 142 -275 194
-388 222 -433 499 -809 144 -196 349 -480 456 -631 285 -404 262 -375 1202
-1567 135 -172 255 -325 267 -340 l20 -28 1 105 0 105 -427 535 c-502 631
-563 709 -563 721 0 15 54 35 189 70 94 25 123 30 134 20 8 -6 32 -58 53 -114
63 -172 88 -214 184 -309 94 -93 134 -114 157 -83 27 38 16 69 -54 150 -120
138 -131 155 -157 233 -37 114 -45 148 -36 162 8 13 198 66 363 101 68 15 102
18 109 11 6 -6 18 -34 28 -64 l19 -53 0 245 1 245 -55 233 c-30 128 -55 248
-55 267 0 32 2 35 55 51 l55 18 0 59 0 59 -35 -6 c-19 -3 -51 -9 -70 -12 -34
-6 -36 -5 -55 39 -26 59 -142 542 -138 576 3 24 11 28 123 58 66 17 132 34
148 37 26 6 27 9 27 66 0 33 -4 60 -8 60 -5 0 -66 -13 -138 -30 -71 -16 -143
-30 -161 -30 -29 0 -33 4 -47 48 -39 117 -126 516 -126 576 0 35 0 36 68 55
123 36 129 35 149 -4 6 -11 21 -64 33 -118 27 -113 37 -132 68 -123 32 10 35
41 18 142 -9 49 -16 103 -16 120 0 34 9 40 105 67 l50 14 3 62 c3 56 1 62 -15
57 -107 -33 -478 -107 -498 -100 -8 3 -19 31 -25 62 -7 32 -20 91 -30 132 -36
145 -90 409 -90 439 0 19 7 34 18 40 10 5 156 45 326 89 169 44 310 82 312 85
2 2 3 143 2 313 l-3 309 -23 -88 c-34 -132 -37 -192 -17 -296 25 -129 44 -115
-270 -197 -115 -30 -245 -64 -288 -76 -67 -18 -80 -19 -92 -7 -11 12 -110 437
-151 647 -22 114 -20 116 130 109 484 -24 681 -41 703 -58 11 -9 13 1 13 60 0
39 -3 71 -7 71 -74 2 -827 51 -851 56 -18 4 -37 15 -43 26 -9 16 -30 115 -53
250 -8 43 13 71 47 63 12 -3 157 -12 322 -20 165 -9 359 -20 430 -25 72 -6
136 -10 143 -10 8 0 12 18 12 55 0 66 31 59 -345 80 -441 26 -627 42 -635 55
-19 30 -38 516 -21 540 14 21 142 28 526 29 171 1 347 4 393 8 l82 6 0 134 0
134 -52 -6 c-29 -3 -356 -7 -726 -8 -588 -2 -674 0 -682 13 -16 25 -12 136 5
153 9 10 47 18 108 22 137 10 696 11 1045 2 l302 -9 0 135 0 134 -71 6 c-39 3
-77 12 -86 18 -20 17 -57 92 -78 159 l-17 55 41 230 c43 242 94 500 111 566
11 41 39 57 79 44 19 -6 21 -2 21 44 0 45 -3 51 -27 63 -16 8 -29 23 -31 36
-4 28 23 72 43 72 19 0 21 90 3 108 -10 10 -10 17 0 32 9 15 12 174 11 677 -1
536 -3 650 -13 613 l-12 -45 -70 2 c-38 1 -265 38 -504 82 -239 45 -658 122
-930 172 -272 49 -512 95 -533 101 -21 6 -43 20 -48 30 -7 12 5 92 41 275 75
381 88 431 110 438 24 8 90 -4 365 -65 339 -75 355 -78 371 -55 15 20 18 63 6
82 -4 6 -102 32 -217 57 -116 25 -238 53 -272 61 -34 8 -88 16 -120 16 -32 1
-71 4 -88 8 -28 6 -30 9 -27 51 4 67 161 768 182 818 11 23 25 42 33 42 17 0
235 -42 732 -140 193 -38 487 -94 655 -125 168 -31 313 -58 323 -61 15 -5 17
5 17 105 0 106 -1 111 -22 116 -13 3 -121 23 -240 45 -280 52 -292 56 -296 96
-2 23 4 39 22 59 15 16 26 38 26 50 0 12 5 36 11 54 14 41 17 41 282 -13 l218
-43 -3 85 -3 86 -736 146 c-404 81 -754 154 -777 163 -33 13 -75 17 -186 17
l-144 0 -7 -32 c-29 -142 -48 -209 -63 -217 -18 -9 -15 -10 -372 44 -135 20
-260 43 -278 51 l-33 14 3 67 3 68 -35 0 c-31 0 -35 -3 -46 -41 -19 -65 -32
-84 -59 -84 -52 0 -456 93 -490 113 -23 14 -1946 24 -2162 12 l-122 -7 16 -24
c20 -32 10 -84 -24 -125 -25 -29 -29 -31 -75 -25 -117 16 -781 147 -820 163
-38 14 -100 17 -498 20 l-456 4 -13 -53 c-26 -103 -51 -158 -79 -172 -15 -7
-83 -30 -152 -50 -318 -92 -428 -155 -525 -300 -64 -96 -116 -217 -148 -344
-17 -71 -21 -115 -21 -237 1 -133 4 -160 27 -238 58 -189 150 -315 355 -485
29 -24 55 -54 58 -67 6 -23 -27 -219 -47 -282 -16 -50 4 -53 -663 83 -414 84
-618 136 -667 169 -67 44 -117 177 -103 270 6 41 59 126 362 579 390 583 429
639 607 866 158 202 186 241 179 251 -3 5 -36 9 -75 9 -54 0 -72 -4 -83 -17
-8 -10 -55 -73 -106 -140 -50 -68 -99 -127 -109 -132 -22 -12 -94 26 -99 53
-2 11 25 60 63 116 37 54 64 103 61 109 -4 6 -40 11 -85 11 l-79 0 -207 -302z
m2025 168 c592 -110 1012 -186 1325 -241 686 -120 659 -114 697 -145 22 -17
26 -30 33 -104 4 -48 14 -97 23 -114 9 -17 60 -68 112 -115 117 -104 174 -165
227 -242 72 -107 91 -154 109 -276 19 -134 14 -206 -26 -364 -54 -213 -88
-272 -270 -459 -159 -164 -196 -180 -365 -156 -150 22 -1152 225 -1455 295
-80 19 -347 77 -595 130 -707 151 -690 147 -805 225 -122 83 -172 144 -226
275 -28 68 -29 74 -29 255 0 151 3 198 19 255 28 104 78 215 131 294 96 145
206 202 538 280 49 11 95 25 103 32 8 6 24 44 36 83 34 117 47 132 118 145 3
1 138 -23 300 -53z m5391 -66 c178 -31 654 -127 754 -152 l90 -23 1 -104 c0
-89 -2 -107 -18 -123 -11 -11 -27 -17 -36 -14 -9 3 -181 37 -382 75 -646 124
-610 114 -610 175 0 62 26 158 46 173 23 17 20 17 155 -7z m-7153 -115 c28
-20 52 -42 52 -51 0 -15 -96 -158 -509 -764 -239 -349 -281 -416 -281 -443 0
-21 -35 -48 -52 -42 -23 9 -28 52 -17 131 11 86 64 276 92 329 48 95 632 875
655 875 4 0 31 -16 60 -35z m5274 -86 c89 -16 172 -36 184 -44 15 -9 38 -64
78 -184 l58 -171 -32 -40 c-66 -84 -209 -180 -267 -180 -64 0 -66 21 -21 243
l33 159 -23 18 c-12 10 -48 24 -80 30 -103 20 -175 40 -190 52 -11 9 -13 26
-8 64 3 29 9 59 12 68 9 24 69 20 256 -15z m-977 -98 c171 -33 384 -74 475
-91 238 -44 352 -70 378 -86 14 -10 22 -24 22 -43 0 -65 -419 -2155 -445
-2219 -10 -23 -25 -47 -35 -52 -17 -9 -368 56 -800 150 -218 47 -250 55 -275
74 -18 13 -19 18 -6 77 27 133 26 131 195 214 100 48 169 89 204 120 61 54
192 213 250 304 52 79 98 207 112 308 17 129 15 407 -5 477 -39 144 -189 344
-364 485 -53 43 -100 88 -105 103 -6 18 -3 53 13 122 22 95 40 129 64 121 7
-2 152 -31 322 -64z m1522 -5 c109 -24 254 -55 323 -69 69 -15 201 -43 295
-62 l170 -36 17 20 c9 12 21 21 27 21 16 0 24 -20 13 -33 -5 -7 -13 -34 -17
-62 -4 -27 -54 -268 -112 -535 -57 -267 -126 -597 -153 -735 -26 -137 -60
-305 -74 -373 -14 -67 -47 -238 -72 -380 -50 -284 -82 -439 -94 -463 -11 -19
-74 -39 -127 -39 -38 0 -339 58 -415 80 -21 6 -40 15 -43 20 -10 17 34 318 55
373 11 29 37 69 58 90 l37 36 233 13 c128 7 236 15 241 18 5 3 18 61 30 130
l22 125 -38 30 c-93 74 -162 156 -204 240 -38 76 -43 96 -47 170 -4 77 -2 90
24 142 20 41 53 81 113 138 158 148 190 185 226 260 60 124 57 256 -10 391
-43 89 -127 170 -221 215 l-67 31 -168 -4 -168 -3 -11 25 c-42 103 -71 246
-53 263 8 9 -16 13 210 -37z m222 -301 c73 -35 111 -61 111 -75 0 -3 -21 -33
-46 -66 -65 -84 -99 -156 -129 -275 -14 -57 -35 -123 -47 -147 -21 -44 -65
-76 -87 -63 -7 5 -25 80 -41 177 -16 93 -45 224 -64 292 -20 68 -36 125 -36
127 0 12 66 47 111 60 75 21 139 12 228 -30z m-409 -142 c57 -151 89 -323 111
-588 14 -172 18 -457 6 -497 -10 -37 -34 -41 -142 -24 -137 22 -415 65 -457
71 -30 4 -39 1 -48 -15 -9 -18 -35 -164 -152 -854 -23 -138 -39 -170 -81 -164
-18 2 -23 11 -25 43 -3 47 336 1763 369 1862 11 35 18 38 94 49 68 9 130 42
216 114 39 33 75 60 80 60 4 0 17 -26 29 -57z m630 -78 c12 -24 28 -78 36
-120 16 -75 16 -77 -10 -158 -41 -133 -95 -203 -216 -282 -74 -47 -88 -65
-145 -179 -65 -130 -80 -115 -87 96 l-5 137 65 38 c45 26 74 52 93 82 27 42
33 61 64 221 9 48 25 89 43 115 34 49 108 106 127 99 8 -3 23 -25 35 -49z
m-7198 -721 c9 -28 31 -106 48 -173 31 -120 31 -124 15 -166 -22 -59 -38 -72
-67 -52 -41 26 -265 236 -272 253 -4 10 5 26 26 46 53 50 201 149 218 146 8
-2 23 -26 32 -54z m6825 -176 c12 -16 33 -98 33 -131 0 -13 -9 -32 -20 -42
-19 -17 -21 -17 -40 0 -16 15 -20 31 -20 82 0 85 21 124 47 91z m-7320 -54
c29 -14 66 -42 84 -65 36 -46 69 -126 69 -169 0 -55 -28 -33 -76 60 -54 106
-86 136 -152 145 -85 11 -102 16 -102 30 0 41 90 41 177 -1z m3007 -95 c302
-61 557 -116 568 -122 24 -15 23 -37 -7 -167 -25 -112 -47 -170 -66 -170 -27
0 -402 71 -947 179 -111 22 -215 47 -231 56 -18 9 -32 26 -36 43 -12 58 33
266 63 290 23 18 20 18 656 -109z m-3614 43 c0 -16 -35 -39 -160 -107 -171
-93 -161 -85 -240 -201 -68 -99 -94 -121 -106 -90 -8 21 49 123 102 184 70 79
200 166 314 208 40 15 90 18 90 6z m1567 -123 c112 -15 133 -29 133 -86 0 -65
-36 -74 -199 -48 -110 18 -128 26 -138 63 -21 81 22 96 204 71z m3073 -119
c583 -116 900 -184 931 -200 20 -11 21 -17 14 -73 -10 -90 -35 -208 -51 -239
-8 -16 -22 -28 -32 -28 -10 0 -150 27 -312 60 -162 33 -376 76 -475 95 -252
49 -417 86 -437 96 -26 14 -23 58 12 195 19 75 36 124 47 132 22 16 42 13 303
-38z m-3478 -6 c29 -9 29 -37 2 -175 -26 -134 -137 -652 -152 -712 -10 -40
-39 -45 -117 -23 -71 21 -85 36 -78 84 10 67 134 696 149 757 22 86 26 88 109
81 38 -4 78 -9 87 -12z m1438 -75 c179 -33 359 -67 400 -74 41 -8 221 -41 400
-75 179 -33 409 -76 513 -95 103 -19 196 -39 207 -45 44 -23 10 -110 -42 -110
-13 0 -131 20 -263 44 -132 25 -382 70 -555 101 -173 31 -362 65 -420 76 -58
10 -230 42 -384 70 -153 28 -295 56 -314 62 -44 14 -68 52 -58 91 9 38 38 45
120 29 39 -7 217 -40 396 -74z m-1816 -45 c3 -9 6 -37 6 -64 0 -57 -7 -80 -25
-80 -18 0 -25 23 -25 80 0 57 7 80 25 80 7 0 16 -7 19 -16z m597 -25 c21 -21
21 -28 15 -128 -9 -141 -19 -177 -56 -196 -53 -27 -90 -14 -90 33 0 37 60 264
76 290 18 28 28 28 55 1z m-1862 -115 c-14 -14 -17 -14 -29 0 -10 13 -10 19 0
32 12 14 15 14 29 0 14 -15 14 -17 0 -32z m2486 20 c19 -19 18 -23 -32 -299
-18 -104 -38 -194 -44 -200 -15 -14 -129 108 -129 138 0 38 58 334 70 356 9
17 20 21 65 21 36 0 59 -5 70 -16z m6892 -154 c371 -67 419 -80 464 -117 29
-25 33 -26 63 -13 17 8 51 13 76 13 43 -1 983 -172 1061 -193 20 -6 42 -17 48
-24 10 -11 -1 -92 -49 -368 -71 -409 -150 -832 -214 -1138 -24 -118 -59 -300
-76 -405 -18 -104 -40 -208 -50 -230 -9 -22 -65 -92 -124 -156 l-106 -116
-537 -6 c-296 -3 -664 -13 -818 -21 -420 -23 -553 -24 -565 -6 -26 40 14 442
45 454 7 2 46 -11 86 -30 88 -42 129 -52 408 -99 243 -41 314 -43 319 -8 6 39
-35 52 -309 98 -289 48 -301 51 -396 104 -73 40 -114 84 -96 102 12 12 76 1
368 -68 424 -99 510 -110 558 -73 14 11 30 35 36 53 11 34 83 530 103 708 11
99 10 108 -8 145 -12 23 -34 46 -55 56 -19 10 -194 51 -389 93 -403 86 -427
92 -435 105 -7 11 4 76 106 620 107 569 109 580 144 580 7 0 161 -27 342 -60z
m-9518 32 c5 -10 17 -61 26 -113 9 -52 25 -130 36 -174 l21 -80 -26 -20 c-70
-56 -211 -135 -241 -135 -56 0 -95 19 -95 47 0 13 48 117 106 231 138 268 151
286 173 244z m1385 -71 c6 -8 3 -25 -24 -146 -6 -27 -13 -60 -16 -72 -2 -13
-11 -23 -18 -23 -22 0 -27 45 -12 92 18 55 29 99 31 118 1 8 3 21 4 28 1 14
27 16 35 3z m4002 -45 c342 -60 652 -117 686 -126 68 -19 81 -55 42 -118 -17
-25 -15 -26 -229 13 -71 13 -186 33 -255 45 -195 32 -382 71 -419 86 -32 14
-33 15 -27 56 8 48 21 68 46 68 9 0 80 -11 156 -24z m-347 -62 c40 -33 39 -47
-3 -79 -45 -34 -82 -44 -128 -32 -49 12 -73 39 -59 65 39 72 132 95 190 46z
m-2932 -78 c13 -15 23 -35 23 -44 -1 -44 -43 -179 -65 -208 -35 -45 -87 -84
-114 -84 -12 0 -40 -9 -62 -20 -29 -15 -49 -19 -75 -14 -45 8 -55 29 -43 83
13 59 26 80 54 91 45 17 60 156 21 199 -21 23 -20 37 3 60 19 19 21 19 127 -8
84 -22 113 -35 131 -55z m-1897 37 c45 -166 100 -401 100 -433 0 -47 -8 -70
-25 -70 -18 0 -22 15 -44 159 -11 70 -25 140 -31 156 -19 49 -49 196 -43 211
10 26 32 14 43 -23z m6161 -83 c30 -6 144 -24 254 -40 637 -94 705 -106 728
-129 26 -26 30 -98 7 -126 -12 -15 -24 -16 -75 -11 -33 4 -105 11 -160 16 -88
9 -502 72 -759 116 -49 8 -102 22 -119 30 -29 15 -29 18 -24 71 3 30 11 61 18
69 14 17 56 18 130 4z m-1791 -36 c175 -33 331 -71 344 -84 12 -12 -1 -97 -65
-430 -64 -330 -72 -358 -105 -366 -36 -9 -532 90 -552 110 -17 17 -21 -10 63
471 38 222 53 291 67 319 12 22 36 20 248 -20z m-2044 -120 c-5 -13 -10 -14
-18 -6 -6 6 -8 18 -4 28 5 13 10 14 18 6 6 -6 8 -18 4 -28z m5319 -149 c176
-35 417 -82 535 -105 231 -46 280 -60 280 -84 0 -34 18 -13 48 54 19 43 37 70
46 70 15 0 21 -12 17 -33 -1 -5 -17 -95 -37 -200 -213 -1162 -235 -1295 -254
-1532 -12 -155 -27 -307 -35 -352 -11 -60 69 -53 -930 -83 -628 -19 -985 -30
-1305 -40 -401 -14 -811 -27 -1255 -40 -565 -17 -945 -30 -1175 -40 -118 -5
-334 -14 -480 -20 -146 -6 -418 -17 -605 -25 -187 -8 -477 -20 -644 -27 l-304
-12 -26 31 c-28 34 -129 254 -167 363 -30 85 -41 160 -58 410 -13 175 -13 215
-1 276 16 84 36 135 63 162 l21 21 127 -34 c229 -61 683 -166 974 -225 157
-31 302 -64 322 -73 48 -20 71 -65 69 -133 -1 -70 13 -84 89 -84 73 0 103 13
117 51 7 17 23 33 39 39 15 6 131 29 257 51 126 21 257 46 292 54 62 14 159
32 530 100 349 64 1099 177 1398 210 139 16 161 16 335 1 347 -31 538 -60 955
-147 525 -108 497 -100 497 -144 0 -47 37 -75 102 -75 44 0 49 3 59 28 17 46
33 52 102 35 158 -37 459 -102 521 -112 56 -10 71 -10 77 1 11 16 11 79 1 94
-4 6 -47 23 -95 38 -112 34 -131 52 -122 113 4 25 14 61 23 80 l16 34 -32 25
c-37 29 -40 44 -12 69 23 21 76 14 111 -14 20 -16 22 -22 12 -44 -7 -14 -21
-28 -33 -32 -11 -3 -18 -10 -15 -14 7 -13 116 -33 155 -29 32 3 35 6 38 37 5
49 -4 75 -30 86 -13 6 -30 26 -40 45 -17 37 -22 41 -120 84 -45 19 -58 30 -58
47 0 22 1 22 110 15 l109 -6 15 29 c17 32 145 625 153 707 3 28 1 54 -4 57
-13 8 -1060 217 -1088 217 -29 0 -41 -15 -49 -65 -20 -111 -78 -375 -92 -412
-20 -54 -64 -62 -55 -10 1 5 20 115 42 245 58 341 59 345 112 335 18 -3 176
-34 352 -68z m-1621 26 c17 -18 17 -22 1 -54 -20 -42 -50 -71 -64 -62 -14 8
-14 75 -1 109 11 31 40 34 64 7z m-3724 -56 c0 -8 -7 -15 -15 -15 -8 0 -15 7
-15 15 0 8 7 15 15 15 8 0 15 -7 15 -15z m-962 -30 c50 -15 52 -17 52 -51 0
-35 -57 -304 -85 -401 -18 -62 -36 -70 -104 -51 -49 15 -49 15 -86 113 -30 79
-30 81 31 283 43 143 38 136 92 129 26 -3 71 -13 100 -22z m256 -116 c-1 -30
-26 -169 -57 -309 -79 -367 -76 -325 -20 -344 76 -25 466 -126 485 -126 9 0
52 19 95 41 l78 41 115 -5 c63 -3 123 -8 133 -12 22 -9 89 -120 129 -216 26
-62 30 -82 26 -137 -5 -71 -20 -92 -68 -92 -15 0 -211 40 -436 89 -451 99
-671 165 -712 213 -8 10 14 120 88 443 55 237 104 440 110 453 18 40 35 20 34
-39z m437 10 c57 -11 115 -26 128 -32 14 -7 36 -34 50 -61 l25 -49 -23 -18
c-27 -22 -20 -23 -256 28 -158 33 -210 53 -202 76 2 7 28 13 63 15 54 3 61 6
76 32 9 17 21 30 26 30 6 0 56 -9 113 -21z m-2224 -75 c2 -6 -18 -38 -44 -71
-26 -33 -63 -81 -80 -107 -18 -25 -37 -46 -43 -46 -35 0 23 121 91 191 46 47
68 57 76 33z m1243 -18 c0 -22 -9 -45 -23 -61 l-22 -26 -25 26 -25 27 37 34
c47 43 58 43 58 0z m4904 -53 c38 -120 38 -118 -2 -176 -21 -30 -39 -71 -43
-97 -5 -25 -14 -76 -22 -115 -18 -84 -38 -182 -43 -212 -4 -23 -28 -31 -39
-13 -3 5 -1 36 4 67 6 32 27 157 46 278 43 270 53 315 70 315 7 0 20 -21 29
-47z m-4070 -27 c56 -16 74 -49 57 -105 -25 -85 -87 -74 -166 27 -43 55 -53
80 -38 96 9 9 90 -1 147 -18z m-887 -71 c102 -60 109 -176 17 -266 -33 -32
-39 -34 -105 -34 -70 0 -71 0 -109 41 -62 67 -66 154 -10 218 61 69 134 83
207 41z m1187 2 c19 -10 19 -10 0 -24 -30 -23 -154 -1 -154 27 0 5 8 11 18 13
24 7 113 -4 136 -16z m3885 -132 c30 -26 65 -47 85 -50 89 -17 164 -136 173
-276 7 -100 -5 -122 -82 -145 -63 -18 -124 -12 -154 14 -11 10 -27 44 -36 77
-14 49 -27 69 -72 113 l-56 53 7 63 c7 69 32 163 48 184 17 20 35 14 87 -33z
m-6434 -35 c0 -29 -32 -41 -41 -16 -9 24 4 48 23 44 12 -2 18 -12 18 -28z
m7378 -42 c23 -12 22 -14 -18 -237 -64 -353 -70 -374 -104 -405 -21 -19 -25
-18 -303 27 -156 26 -358 58 -449 72 -193 28 -197 30 -205 60 -17 68 16 91 83
57 80 -41 209 -53 286 -25 l47 17 38 -37 c55 -53 124 -81 202 -82 56 0 77 5
142 38 88 43 75 14 124 277 36 195 42 218 65 241 20 20 50 19 92 -3z m-3462
-48 c604 -120 1058 -195 1854 -305 105 -14 200 -30 213 -35 26 -11 31 -60 7
-83 -14 -15 -96 -27 -323 -47 -100 -8 -242 -32 -457 -75 -159 -32 -456 -87
-700 -130 -143 -25 -339 -62 -436 -81 -97 -19 -196 -34 -219 -32 -43 3 -43 4
-62 58 -30 89 -197 678 -204 721 -4 25 -2 44 6 54 7 8 14 15 15 15 2 0 139
-27 306 -60z m-2316 28 c22 -10 25 -18 25 -59 0 -82 -15 -93 -91 -68 -101 32
-104 36 -64 99 22 36 30 40 65 40 21 0 51 -5 65 -12z m7620 -62 c329 -68 555
-118 598 -132 81 -27 80 -4 21 -439 -44 -328 -55 -379 -78 -388 -20 -8 -701
142 -804 176 l-37 13 2 55 c3 68 120 704 134 731 6 11 17 17 27 14 9 -3 71
-17 137 -30z m-7940 -92 c11 -12 14 -26 10 -48 -20 -101 -45 -123 -71 -61 -17
42 -19 112 -1 118 24 10 46 7 62 -9z m1795 -25 c96 -15 147 -42 225 -118 129
-126 243 -201 307 -201 17 0 35 -10 51 -29 25 -30 65 -159 75 -238 4 -42 4
-42 -34 -49 -106 -20 -582 30 -671 70 -38 18 -49 49 -58 169 -6 81 -12 98 -65
206 l-58 119 31 30 c60 56 81 60 197 41z m-1690 -53 c5 -14 18 -29 28 -35 35
-19 100 -24 132 -11 45 19 56 3 40 -55 -18 -64 -31 -68 -135 -46 -111 25 -129
40 -122 104 4 26 9 52 12 57 11 18 35 10 45 -14z m6734 -81 c158 -32 223 -52
230 -70 7 -20 -11 -108 -28 -131 -12 -16 -22 -16 -121 -6 -114 11 -130 10
-140 -16 -11 -28 27 -50 142 -83 136 -39 158 -55 149 -112 -11 -67 -27 -92
-63 -95 -39 -4 -382 66 -402 81 -10 9 -12 29 -8 82 6 81 54 331 68 357 13 23
28 23 173 -7z m-7741 -154 c108 -51 129 -67 106 -82 -18 -11 -37 -5 -124 37
-96 46 -137 72 -130 84 11 18 43 10 148 -39z m532 -110 c3 -5 1 -13 -5 -16
-15 -9 -43 3 -35 15 8 13 32 13 40 1z m8866 -1262 c14 -23 11 -133 -5 -155
-13 -17 -29 -19 -155 -22 -110 -3 -152 0 -190 13 -53 17 -90 50 -75 65 12 12
203 87 268 105 60 17 144 14 157 -6z m543 -450 c16 -16 45 -463 32 -512 -4
-19 -16 -29 -44 -37 -21 -6 -203 -15 -422 -20 -212 -5 -601 -14 -865 -21 -264
-7 -501 -9 -527 -5 -29 4 -49 13 -53 24 -11 25 -18 495 -8 509 15 21 188 37
703 66 92 5 1179 2 1184 -4z m-2026 -62 c15 -16 17 -44 17 -268 0 -197 -3
-251 -13 -258 -23 -14 -163 -20 -877 -36 l-690 -16 -130 -31 -130 -31 -155 74
c-266 129 -542 279 -617 336 -79 60 -133 116 -133 138 0 25 -81 21 1460 76
316 11 674 24 795 29 319 12 451 8 473 -13z m-7718 -32 c0 -8 -9 -15 -20 -15
-20 0 -26 11 -13 23 12 13 33 7 33 -8z m-80 -55 c0 -10 -58 -50 -72 -50 -18 0
-6 27 20 42 31 20 52 23 52 8z m3886 -307 c-4 -27 -13 -75 -20 -108 -7 -33
-11 -63 -7 -66 3 -4 107 -30 230 -58 384 -90 783 -242 1249 -475 294 -147 697
-396 922 -569 168 -130 393 -313 466 -378 66 -60 66 -61 114 -54 l47 6 220
-263 c361 -432 383 -463 383 -535 0 -30 16 -65 73 -158 162 -265 359 -632 634
-1183 110 -222 157 -327 161 -359 3 -32 31 -96 87 -202 45 -86 173 -331 285
-546 209 -401 236 -448 447 -768 158 -239 284 -414 392 -547 120 -148 465
-540 615 -698 69 -74 126 -140 126 -148 0 -22 -28 -28 -58 -13 -39 21 -398
356 -541 505 -120 126 -326 387 -448 569 -72 107 -305 490 -423 695 -101 175
-298 570 -524 1050 -461 977 -633 1300 -904 1700 -267 394 -255 381 -687 775
-303 277 -372 336 -555 471 -333 246 -374 272 -675 436 -311 169 -381 204
-588 287 -315 127 -505 189 -842 273 -116 29 -122 32 -173 82 -29 28 -62 70
-73 93 -19 39 -19 44 -4 107 18 82 40 126 62 126 13 0 15 -8 9 -47z m-296 12
c9 -11 9 -30 1 -82 -6 -37 -11 -84 -10 -104 2 -41 -6 -59 -27 -59 -21 0 -376
87 -436 106 -52 17 -62 39 -25 53 21 8 450 99 473 100 6 1 17 -6 24 -14z
m-805 -285 c442 -105 908 -219 963 -235 32 -10 52 -22 52 -31 0 -7 -56 -88
-124 -179 -189 -250 -175 -235 -219 -235 -31 0 -265 52 -409 91 -57 15 -61 31
-43 173 19 154 19 143 -6 157 -34 17 -45 -4 -78 -140 -16 -68 -35 -127 -42
-132 -16 -10 -70 -4 -194 22 -49 10 -115 19 -147 19 -53 0 -60 -3 -95 -38 -21
-21 -45 -49 -54 -63 -10 -13 -20 -21 -25 -17 -12 13 -104 534 -104 593 0 35
17 48 87 67 93 25 141 19 438 -52z m6508 34 c26 -10 31 -63 32 -347 0 -218 -3
-269 -14 -276 -27 -17 -212 -62 -231 -56 -24 8 -27 16 -44 148 -7 60 -18 113
-24 119 -17 17 -91 27 -212 28 -135 1 -199 11 -216 35 -17 23 -54 185 -61 267
l-6 67 34 5 c19 3 151 9 294 15 257 9 417 7 448 -5z m552 6 c14 -5 30 -22 36
-37 18 -45 79 -351 79 -394 0 -48 2 -47 -215 -100 -88 -21 -183 -45 -212 -52
-28 -8 -57 -11 -63 -7 -14 9 -29 214 -29 405 -1 155 3 182 28 188 33 9 351 7
376 -3z m-1491 -30 c29 -11 33 -23 81 -252 18 -86 38 -166 44 -177 15 -28 28
-30 234 -40 132 -6 183 -12 193 -23 9 -8 17 -46 21 -94 5 -75 4 -82 -16 -101
-25 -24 -175 -66 -421 -119 -91 -19 -230 -50 -309 -69 -100 -24 -149 -32 -161
-25 -30 16 -51 175 -71 530 -11 196 -9 343 4 357 22 21 352 32 401 13z m-554
-20 c17 -17 20 -33 20 -100 0 -63 -3 -82 -15 -86 -26 -10 -239 165 -222 183 8
7 80 16 170 21 15 1 35 -6 47 -18z m-5672 -3 c6 -6 40 -194 77 -417 121 -738
119 -721 82 -744 -28 -19 -202 -50 -234 -41 -39 9 -35 -10 -168 754 -59 335
-62 363 -42 379 11 10 240 80 263 82 6 0 16 -6 22 -13z m5160 -10 c2 -10 -4
-28 -15 -39 -14 -16 -26 -19 -58 -15 -37 6 -43 3 -86 -39 l-46 -46 -42 22
c-34 17 -48 19 -76 11 -32 -9 -39 -6 -82 30 -50 41 -69 66 -58 77 5 6 370 20
440 18 11 -1 21 -9 23 -19z m-620 -39 c61 -95 450 -458 490 -458 23 0 75 55
194 205 121 152 131 161 161 148 33 -15 137 -113 137 -129 0 -7 -57 -84 -126
-171 -69 -87 -130 -168 -135 -182 -14 -36 -3 -57 72 -138 60 -65 69 -79 69
-112 0 -24 8 -48 21 -65 17 -21 19 -29 9 -41 -12 -14 -156 -65 -185 -65 -18 0
-93 63 -265 221 -219 201 -208 192 -693 553 -153 114 -277 212 -274 219 11 36
125 53 365 56 l132 1 28 -42z m-4972 -83 c16 -24 80 -362 160 -833 28 -171 35
-228 26 -246 -13 -29 -97 -54 -211 -63 -78 -6 -80 -5 -90 18 -19 44 -181 984
-181 1048 0 34 -5 31 145 72 126 34 131 34 151 4z m-426 -105 c10 -19 69 -344
148 -814 36 -216 37 -231 21 -247 -35 -35 -219 -76 -264 -59 -16 6 -27 21 -34
47 -26 100 -164 896 -165 953 l-1 64 48 18 c64 24 186 57 214 57 12 1 27 -8
33 -19z m2893 -86 c117 -29 151 -41 161 -58 8 -11 16 -59 19 -106 7 -97 22
-166 78 -365 87 -303 108 -360 139 -368 28 -7 158 20 560 116 560 135 530 130
578 100 63 -40 340 -245 358 -264 19 -21 19 -21 -6 -41 -51 -42 -154 -79 -332
-118 -101 -23 -271 -61 -379 -85 -107 -25 -217 -49 -245 -55 -77 -15 -266 -56
-419 -90 -332 -74 -390 -83 -404 -66 -14 17 -121 471 -227 966 -79 366 -95
450 -88 461 9 16 55 10 207 -27z m-3319 -56 c8 -18 24 -89 35 -158 12 -69 46
-258 76 -420 58 -320 71 -418 57 -438 -5 -8 -27 -16 -50 -19 l-40 -5 -58 88
c-164 255 -428 676 -473 756 l-32 57 23 15 c49 32 385 155 426 155 17 1 27 -8
36 -31z m3722 -72 c314 -107 884 -384 884 -431 0 -18 -122 -52 -541 -150 -238
-55 -272 -61 -286 -43 -24 30 -148 459 -159 549 -6 53 5 99 25 99 4 0 39 -11
77 -24z m-701 -58 c27 -94 115 -508 115 -542 0 -30 -4 -35 -47 -54 -27 -11
-64 -23 -83 -27 -113 -24 -128 -64 -89 -238 11 -50 36 -166 54 -257 18 -91 37
-173 40 -183 6 -13 -1 -21 -31 -33 -65 -28 -457 -125 -480 -120 -25 7 -44 65
-129 401 -44 172 -54 224 -46 242 13 29 581 781 634 841 31 34 45 27 62 -30z
m6155 -114 c22 -74 105 -445 115 -514 3 -25 2 -50 -2 -56 -15 -20 -57 -37
-176 -69 -109 -30 -119 -31 -137 -16 -22 19 -32 51 -109 341 -82 311 -79 286
-40 306 43 22 244 73 291 74 37 0 37 0 58 -66z m-9766 24 c29 -40 200 -312
242 -385 34 -62 30 -75 -34 -111 l-40 -23 -60 73 c-70 86 -267 350 -281 377
-12 22 1 36 69 75 59 34 74 33 104 -6z m2371 -4 c32 -32 -4 -153 -54 -182 -34
-19 -43 -37 -67 -135 l-17 -69 27 -21 26 -22 -20 -95 c-11 -52 -20 -96 -20
-97 0 -11 -31 1 -39 15 -15 27 -82 447 -75 465 8 21 12 21 65 -2 68 -31 81 -6
54 102 -5 17 -3 33 5 42 17 21 94 20 115 -1z m286 -44 c386 -86 485 -115 483
-142 -5 -65 -761 -968 -810 -968 -17 0 -36 65 -73 255 -47 239 -46 250 23 240
33 -5 45 -3 56 11 8 9 31 27 52 40 31 20 40 34 57 91 11 38 23 88 27 112 7 41
5 46 -26 71 l-34 28 28 113 c33 135 50 179 69 179 7 0 74 -13 148 -30z m6603
-42 c13 -22 147 -510 162 -591 6 -36 5 -38 -32 -53 -48 -20 -361 -99 -463
-116 -88 -15 -95 -9 -105 80 -15 134 -19 153 -33 167 -8 8 -25 15 -39 15 -35
0 -44 -33 -44 -168 0 -64 -4 -122 -8 -129 -18 -28 -244 -88 -272 -73 -19 10
-47 114 -115 428 -46 214 -46 216 8 236 41 16 416 108 489 120 33 6 38 4 51
-21 8 -15 20 -51 27 -79 12 -45 11 -56 -3 -87 -37 -77 -12 -114 71 -104 78 9
84 32 51 203 -11 58 -18 112 -15 120 6 16 173 67 243 73 7 1 19 -9 27 -21z
m-9536 -65 c21 -27 108 -138 192 -248 l152 -200 -53 -48 c-30 -26 -87 -73
-128 -105 l-74 -56 -39 44 c-82 92 -358 467 -358 486 0 10 10 26 23 34 68 44
231 140 237 140 5 0 26 -21 48 -47z m7900 -109 c4 -38 -27 -80 -51 -71 -36 14
-6 112 31 105 11 -2 18 -15 20 -34z m510 -92 c21 -21 42 -100 101 -376 48
-222 50 -250 18 -271 -35 -22 -174 -56 -241 -58 l-60 -2 -29 90 c-32 101 -101
361 -122 462 -21 102 -26 98 190 148 124 29 121 29 143 7z m-482 -116 c25 -39
164 -555 164 -612 0 -23 -17 -32 -99 -56 l-44 -12 -45 49 c-25 28 -130 156
-234 284 -213 264 -205 242 -99 282 55 20 304 88 328 89 7 0 20 -11 29 -24z
m-7247 -173 c28 -43 51 -82 51 -89 0 -6 -32 -38 -70 -70 -39 -32 -73 -69 -77
-81 -3 -13 -2 -45 2 -71 10 -70 92 -436 115 -514 19 -63 24 -70 79 -107 64
-44 67 -49 76 -161 3 -41 8 -100 11 -132 l5 -56 -48 -16 c-102 -33 -285 -77
-298 -72 -8 3 -21 18 -29 34 -22 42 -247 985 -253 1058 l-5 61 91 77 c116 99
272 216 287 216 7 0 35 -35 63 -77z m3361 7 c11 -21 91 -342 111 -448 10 -54
10 -66 -3 -78 -20 -20 -128 -48 -140 -36 -28 28 -130 514 -111 533 10 10 107
48 125 49 4 0 12 -9 18 -20z m-1688 -67 c9 -10 20 -34 26 -53 23 -75 104 -511
98 -533 -3 -12 -22 -42 -43 -66 -54 -63 -184 -172 -202 -169 -17 4 -17 1 -96
410 -30 158 -55 305 -55 327 0 50 10 56 138 80 126 24 117 24 134 4z m7847
-51 c16 -29 123 -521 129 -589 5 -61 4 -63 -24 -74 -16 -6 -96 -26 -179 -44
-82 -19 -189 -43 -238 -54 -48 -12 -122 -28 -164 -37 -92 -19 -92 -19 -119 88
-19 78 -41 108 -79 108 -41 0 -51 -35 -36 -129 13 -88 10 -104 -24 -119 -35
-16 -176 -44 -192 -38 -7 3 -13 15 -13 27 0 11 -10 55 -22 96 -24 83 -49 110
-93 99 -35 -9 -39 -38 -20 -147 16 -92 16 -94 -4 -110 -19 -15 -93 -38 -366
-109 -66 -18 -160 -42 -210 -56 -85 -22 -91 -22 -107 -6 -16 17 -290 398 -360
503 -60 87 -66 80 122 133 30 8 126 31 214 51 191 43 189 44 228 -71 44 -131
65 -173 93 -186 21 -9 28 -8 45 7 27 24 25 54 -10 171 -39 129 -39 141 4 159
41 17 235 66 676 169 179 42 413 99 520 126 107 27 200 49 207 50 7 0 17 -8
22 -18z m-8276 -21 c29 -11 38 -43 97 -361 22 -118 49 -263 60 -322 12 -60 23
-114 26 -122 3 -8 -4 -24 -16 -36 -30 -30 -84 -23 -211 24 -145 54 -136 35
-197 406 -29 174 -52 325 -52 337 0 29 37 48 131 67 90 17 130 19 162 7z
m4354 -42 c149 -129 573 -525 573 -536 0 -23 -49 -39 -355 -112 -93 -22 -273
-65 -400 -96 -126 -30 -327 -77 -445 -104 -118 -27 -289 -70 -380 -96 -91 -25
-246 -66 -345 -91 -99 -25 -232 -58 -295 -74 -80 -20 -120 -26 -132 -19 -28
15 -84 241 -67 271 5 8 29 23 54 32 46 18 65 39 65 75 0 29 -31 42 -95 39 -40
-2 -59 2 -66 12 -19 30 -41 117 -46 182 -5 65 -5 68 19 77 42 16 234 59 953
216 116 25 230 50 255 55 361 83 435 105 570 169 47 22 86 40 87 41 1 0 23
-19 50 -41z m-4783 -41 c14 -21 72 -323 96 -497 14 -99 8 -115 -39 -108 -51 7
-142 43 -190 75 -61 41 -328 409 -318 437 8 19 73 40 247 78 191 42 186 42
204 15z m-581 -145 l90 -131 -28 -79 c-48 -139 -99 -248 -117 -251 -9 -2 -24
8 -33 21 -24 38 -126 487 -114 508 15 28 73 69 93 67 13 -2 53 -51 109 -135z
m2177 115 c15 -36 120 -465 120 -491 0 -21 -10 -27 -82 -49 -156 -49 -530
-139 -561 -136 -41 4 -66 45 -52 82 16 41 535 616 557 616 4 0 13 -10 18 -22z
m-2956 -145 c28 -87 219 -875 231 -956 6 -40 4 -47 -16 -60 -24 -15 -217 -67
-249 -67 -10 0 -23 6 -29 14 -16 19 -49 153 -121 491 -35 163 -72 312 -86 344
l-25 56 63 60 c93 88 187 165 203 165 7 0 20 -21 29 -47z m1007 -300 c23 -32
71 -87 105 -123 l63 -66 3 -73 c3 -68 1 -74 -23 -95 -27 -24 -212 -76 -268
-76 -24 0 -31 6 -40 31 -19 54 -13 142 15 231 25 80 88 228 97 228 3 0 24 -26
48 -57z m3058 19 c12 -22 87 -318 106 -417 16 -84 10 -99 -48 -113 -56 -14
-97 -47 -97 -77 0 -38 26 -50 113 -50 l80 0 18 -52 c10 -29 50 -195 89 -370
40 -175 74 -322 77 -326 9 -15 -26 -55 -54 -60 -15 -2 -145 -32 -288 -66 -394
-93 -444 -104 -469 -97 -22 5 -28 20 -60 153 -51 214 -56 240 -50 257 4 9 47
28 105 46 65 20 102 37 109 50 25 47 -1 120 -43 120 -12 0 -41 -13 -65 -29
-48 -33 -116 -49 -136 -32 -17 14 -33 72 -96 351 -69 302 -100 456 -100 495 0
37 5 40 125 74 56 16 534 135 620 154 40 9 55 7 64 -11z m-4451 -4 c17 -22 51
-146 92 -348 23 -107 52 -243 65 -302 14 -59 25 -125 25 -148 0 -35 -4 -42
-27 -51 -38 -14 -224 -59 -245 -59 -22 0 -40 60 -107 345 -58 242 -72 322 -62
349 7 18 229 226 242 226 4 0 11 -6 17 -12z m7242 -168 c22 -12 344 -469 384
-544 42 -79 54 -74 -360 -165 -252 -55 -302 -65 -330 -62 -16 1 -31 41 -112
301 -85 270 -104 342 -93 353 13 13 171 55 421 113 70 16 68 16 90 4z m-3743
-52 c17 -22 21 -56 9 -72 -11 -16 -148 -58 -226 -71 -66 -10 -107 -33 -120
-66 -19 -44 -4 -177 41 -382 24 -108 39 -197 37 -225 l-3 -47 -85 -23 c-47
-12 -98 -21 -115 -20 -30 3 -30 5 -62 128 -18 69 -53 222 -78 340 -25 118 -48
225 -50 237 -10 44 -5 46 425 157 113 29 208 54 211 55 4 0 11 -5 16 -11z
m7123 -13 c7 -8 37 -121 67 -252 90 -388 86 -363 68 -389 -8 -13 -28 -26 -43
-30 -15 -3 -44 -10 -66 -16 -81 -20 -149 -27 -167 -18 -11 7 -26 38 -39 83
-62 215 -69 234 -92 241 -67 18 -182 -11 -200 -50 -10 -21 -8 -28 12 -49 19
-20 33 -25 71 -25 l48 0 21 -67 c12 -38 24 -91 27 -119 6 -60 -1 -67 -80 -79
-46 -7 -49 -6 -100 37 -71 60 -128 98 -149 98 -17 0 -48 -36 -48 -56 0 -7 16
-35 35 -63 19 -28 35 -55 35 -60 0 -12 -11 -15 -385 -115 -361 -96 -500 -128
-533 -124 -25 3 -40 30 -175 297 -81 162 -147 304 -145 315 4 25 81 49 488
151 402 101 1241 293 1326 304 6 0 17 -6 24 -14z m-8830 -46 c45 -17 85 -39
90 -50 6 -10 22 -81 36 -156 14 -76 52 -250 84 -388 124 -526 124 -527 105
-541 -9 -7 -53 -22 -98 -34 -105 -28 -135 -44 -143 -76 -7 -27 -6 -36 50 -346
20 -109 33 -204 30 -212 -3 -8 -17 -19 -32 -25 -44 -17 -184 -50 -243 -57
l-56 -6 -17 48 c-21 63 -236 1014 -236 1045 0 19 11 29 52 49 37 17 56 34 62
53 14 38 0 48 -76 59 -34 4 -66 12 -71 17 -12 12 -55 182 -63 248 l-7 53 54
23 c30 13 115 39 189 57 179 44 190 54 190 173 0 74 4 97 17 97 2 0 40 -14 83
-31z m919 -123 c37 -117 79 -306 83 -376 l3 -55 -109 -37 c-60 -21 -117 -44
-125 -53 -10 -10 -15 -31 -14 -58 1 -23 41 -228 88 -456 47 -227 85 -431 85
-452 0 -42 9 -38 -125 -67 -137 -31 -189 -36 -203 -20 -20 24 -38 98 -248
1008 -58 250 -108 483 -111 517 -6 62 -6 63 19 63 14 0 71 -14 127 -31 l103
-32 66 18 c84 22 118 40 212 109 l75 55 23 -21 c13 -13 35 -60 51 -112z m3874
72 c19 -15 42 -79 130 -358 80 -251 82 -263 64 -282 -8 -8 -61 -25 -118 -37
-57 -13 -128 -28 -157 -36 -44 -10 -56 -10 -67 1 -16 17 -155 582 -155 632 0
27 29 37 235 85 36 8 51 7 68 -5z m-431 -124 c17 -28 129 -475 143 -568 5 -32
3 -47 -9 -59 -22 -22 -259 -99 -293 -95 -21 2 -32 12 -44 38 -24 50 -139 573
-139 630 0 4 12 13 28 19 40 16 265 70 281 68 8 -1 23 -16 33 -33z m-2593 -15
c6 -18 69 -286 141 -596 96 -415 128 -569 120 -582 -13 -26 -43 -36 -245 -81
-326 -74 -373 -83 -388 -77 -18 7 -31 51 -96 317 -45 188 -48 203 -32 219 9 9
76 34 148 55 137 40 173 61 173 100 0 28 -38 216 -79 394 -40 171 -42 215 -13
227 33 15 197 53 229 54 26 1 33 -4 42 -30z m2132 -109 c22 -60 129 -560 129
-604 0 -24 -6 -38 -19 -45 -10 -6 -80 -23 -156 -38 l-138 -28 -29 35 c-16 19
-35 57 -43 84 -12 39 -83 365 -111 509 -5 25 -1 29 39 47 56 25 277 90 297 87
8 -1 22 -22 31 -47z m-497 -102 c16 -27 28 -77 91 -366 25 -117 50 -224 55
-238 8 -20 5 -27 -14 -39 -30 -20 -338 -87 -380 -83 -29 3 -32 7 -53 80 -27
96 -123 510 -123 532 0 28 47 48 218 91 92 24 173 44 179 44 7 1 19 -9 27 -21z
m-4051 -73 c21 -20 31 -55 72 -245 20 -91 58 -262 86 -380 96 -412 169 -750
169 -783 0 -26 -6 -36 -25 -45 -48 -22 -229 -63 -285 -65 l-55 -2 -36 150
c-20 83 -69 294 -108 470 -38 176 -95 430 -126 565 -62 275 -63 258 20 282
116 32 251 67 262 68 6 0 18 -7 26 -15z m-490 -132 c14 -26 94 -344 136 -536
16 -73 17 -90 6 -101 -17 -17 -259 -78 -278 -70 -30 11 -48 79 -162 621 -7 32
16 48 102 71 43 12 94 25 113 31 56 15 69 13 83 -16z m7095 -31 c18 -18 251
-471 286 -555 l15 -38 -32 -14 c-18 -7 -183 -50 -367 -94 -555 -132 -524 -128
-541 -83 -19 49 -131 516 -136 568 -7 65 -10 63 184 109 239 58 284 66 357 67
58 0 78 5 120 29 59 34 89 36 114 11z m-4928 -62 c24 -13 38 -57 109 -350 103
-424 113 -468 109 -492 -4 -31 -61 -58 -129 -61 l-53 -2 -13 45 c-7 25 -38
162 -68 305 -99 478 -104 509 -93 522 6 7 31 20 57 27 57 18 58 18 81 6z
m7987 -42 c15 -21 106 -405 100 -422 -4 -9 -16 -16 -28 -16 -47 0 -635 248
-664 280 -16 18 -15 19 12 33 23 12 177 50 528 130 35 8 42 7 52 -5z m-3956
-163 c15 -44 53 -190 85 -324 l58 -244 -21 -17 c-20 -16 -640 -180 -681 -180
-12 0 -26 8 -31 19 -11 20 -138 540 -148 601 -7 47 1 52 128 94 129 42 533
136 569 133 9 -1 25 -32 41 -82z m3060 -56 c20 -38 23 -205 5 -336 -15 -110
-15 -130 -2 -214 9 -57 12 -99 6 -109 -8 -15 -205 -88 -283 -105 -38 -8 -51 7
-233 255 -195 266 -225 310 -222 328 3 14 71 35 548 162 80 21 150 39 157 39
7 1 17 -9 24 -20z m230 -49 c33 -17 62 -37 65 -45 4 -8 -8 -60 -25 -115 -37
-122 -32 -150 24 -150 31 0 37 4 58 48 13 26 34 73 47 105 22 55 25 59 51 53
26 -5 428 -168 549 -223 l55 -24 -24 -20 c-13 -11 -33 -21 -45 -24 -30 -6
-279 -63 -569 -131 l-249 -58 -19 24 c-10 14 -24 50 -30 80 -11 53 -9 86 11
235 5 39 9 113 10 166 0 53 3 99 7 102 11 11 21 8 84 -23z m-4167 -63 c38 -38
123 -374 101 -396 -15 -14 -350 -83 -387 -79 -26 2 -36 10 -50 38 -22 47 -70
262 -72 325 l-1 50 80 23 c91 26 249 60 283 61 13 1 33 -9 46 -22z m-550 -109
c17 -27 30 -77 97 -393 90 -428 118 -534 144 -551 17 -11 29 -12 50 -4 28 11
28 11 21 83 -4 40 -18 123 -32 185 -14 62 -24 127 -22 144 3 29 7 32 68 50 76
21 303 68 330 68 11 0 26 -12 34 -27 7 -16 41 -145 75 -288 34 -143 77 -320
96 -393 19 -73 32 -139 29 -147 -3 -8 -27 -21 -52 -29 -52 -17 -434 -111 -717
-177 -99 -23 -195 -45 -213 -49 -65 -16 -55 -47 -198 585 -41 182 -92 407
-114 500 -21 94 -46 208 -55 255 -15 84 -15 85 5 102 11 9 55 24 98 34 42 9
131 29 197 44 148 35 141 35 159 8z m-3280 -111 c17 -18 33 -65 64 -193 23
-93 44 -187 48 -210 l6 -41 -53 -21 c-30 -12 -70 -24 -90 -27 -35 -6 -37 -5
-48 27 -8 27 -57 279 -76 389 -7 43 16 73 65 86 61 16 58 16 84 -10z m2676
-27 c13 -24 78 -291 169 -695 39 -170 91 -399 116 -508 25 -110 45 -203 45
-208 0 -18 -75 -42 -290 -90 -118 -26 -284 -64 -369 -83 -85 -19 -158 -33
-163 -30 -16 10 -27 49 -99 367 -39 172 -109 480 -156 684 -69 303 -83 376
-73 388 16 19 114 48 305 91 175 39 220 42 234 15 6 -10 24 -70 41 -132 52
-192 61 -218 76 -234 22 -22 61 -19 75 6 14 27 8 76 -34 257 -37 156 -36 165
18 181 53 16 93 13 105 -9z m3291 -50 c31 -17 289 -551 289 -600 0 -12 -9 -25
-22 -30 -47 -20 -373 -78 -390 -69 -9 5 -21 24 -27 41 -24 74 -131 535 -131
565 0 40 11 46 137 77 115 29 118 29 144 16z m-7278 -27 c19 -22 25 -44 86
-330 53 -245 61 -298 46 -311 -6 -5 -62 -21 -126 -36 -132 -31 -150 -28 -168
26 -24 74 -131 535 -131 566 0 39 8 43 155 77 123 29 119 29 138 8z m6855 -72
c12 -7 146 -527 152 -586 6 -53 -8 -61 -181 -104 -153 -38 -172 -39 -187 -7
-24 53 -152 544 -152 584 0 27 5 32 43 46 53 21 265 75 292 75 11 1 26 -3 33
-8z m-3824 -68 c7 -16 26 -77 41 -137 33 -138 105 -456 105 -468 0 -17 -72
-39 -299 -93 -479 -113 -640 -146 -660 -135 -11 5 -26 31 -35 57 -22 66 -114
457 -122 515 -6 47 -6 48 28 62 58 25 354 96 397 96 49 0 53 -7 76 -120 28
-136 56 -169 105 -120 24 24 24 38 5 157 -8 50 -12 98 -9 107 9 24 77 45 309
99 38 9 45 7 59 -20z m7125 13 c7 -8 31 -91 55 -185 43 -166 44 -172 26 -193
l-18 -22 -58 18 c-33 10 -144 52 -248 93 -355 140 -386 163 -256 192 25 6 140
33 255 60 116 27 215 50 221 50 6 1 17 -5 23 -13z m-3796 -97 c16 -34 136
-470 151 -551 9 -51 -5 -59 -202 -106 -125 -30 -164 -36 -172 -27 -12 14 -77
275 -114 455 -14 69 -28 135 -31 147 -4 17 2 26 25 38 32 16 298 85 315 81 6
-1 18 -18 28 -37z m3084 -103 c106 -73 155 -95 503 -232 80 -31 174 -61 210
-66 124 -19 123 -18 142 -75 10 -29 19 -71 20 -94 3 -34 -1 -44 -22 -60 -23
-17 -361 -109 -456 -124 -37 -6 -47 -2 -118 47 -184 127 -204 135 -232 93 -22
-33 -12 -54 51 -114 70 -66 71 -68 37 -85 -29 -15 -155 -48 -227 -60 -48 -8
-27 -32 -297 352 -174 248 -195 283 -184 301 6 9 256 92 391 129 102 29 125
27 182 -12z m-3583 2 c8 -13 29 -86 46 -163 110 -482 106 -449 54 -471 -51
-22 -277 -74 -318 -74 -32 0 -36 3 -45 38 -52 195 -131 524 -133 552 -3 32 0
35 37 48 54 18 317 91 332 91 7 1 19 -9 27 -21z m-3947 -73 c23 -16 39 -69
108 -365 50 -217 53 -245 28 -259 -33 -17 -484 -112 -504 -106 -28 9 -35 28
-75 197 -79 339 -93 411 -84 428 11 21 112 50 314 90 166 33 185 35 213 15z
m-670 -152 c21 -20 31 -54 97 -344 55 -241 57 -252 47 -268 -10 -15 -289 -88
-371 -97 -41 -5 -59 -3 -67 7 -15 19 -133 536 -133 583 0 46 10 51 215 99 175
42 187 43 212 20z m6408 -203 c42 -67 275 -540 275 -559 0 -10 -12 -23 -26
-29 -31 -15 -496 -132 -521 -132 -25 0 -38 24 -63 118 -33 122 -72 160 -115
112 -17 -19 -17 -24 -2 -113 24 -130 23 -151 -8 -165 -29 -13 -150 -44 -380
-97 -88 -21 -214 -50 -280 -65 -66 -15 -183 -42 -260 -60 -229 -53 -371 -86
-539 -125 -87 -21 -181 -38 -210 -39 l-51 -1 2 51 c2 53 48 273 109 527 26
105 41 150 54 157 38 20 745 190 792 190 l36 0 31 -99 c33 -107 48 -127 86
-117 42 11 47 36 30 135 -8 49 -12 96 -9 105 3 9 35 24 73 35 168 50 828 198
938 210 7 0 24 -17 38 -39z m-4433 -191 c26 -73 129 -560 126 -599 l-3 -35
-175 -42 c-215 -51 -237 -53 -251 -15 -11 27 -141 537 -152 600 -6 27 -3 34
16 43 41 18 372 99 397 96 19 -2 28 -12 42 -48z m-583 -114 c18 -38 150 -571
151 -607 0 -34 -12 -41 -120 -68 -47 -11 -93 -23 -103 -26 -26 -8 -38 29 -106
341 -34 154 -64 288 -67 297 -8 27 28 51 113 75 97 27 114 26 132 -12z m-376
-70 c8 -8 24 -54 35 -102 71 -309 114 -523 109 -537 -4 -9 -24 -24 -44 -33
-36 -15 -422 -109 -552 -134 -75 -14 -80 -11 -106 79 -41 140 -135 530 -135
559 0 30 3 33 51 47 28 9 96 25 152 37 l101 22 17 -22 c10 -12 25 -47 34 -79
9 -31 23 -67 31 -79 20 -31 59 -30 80 3 15 22 16 33 6 88 -18 97 -16 112 16
125 34 14 140 39 169 40 12 1 28 -6 36 -14z m3205 -125 c3 -31 -100 -551 -129
-653 -8 -32 -18 -42 -52 -57 -23 -10 -215 -57 -427 -104 -212 -47 -555 -124
-764 -171 -208 -47 -389 -85 -403 -85 -18 0 -27 8 -37 33 -22 52 -139 586
-132 603 8 21 64 42 189 71 143 32 159 30 170 -22 32 -153 56 -195 107 -195
38 0 44 37 25 150 -15 88 -15 104 -3 116 23 23 445 124 516 124 28 0 30 -4 51
-77 39 -135 42 -143 63 -154 15 -8 27 -8 44 0 21 9 24 18 24 61 0 27 -5 81
-12 119 -14 85 -9 94 71 118 95 28 665 162 681 160 9 -1 16 -15 18 -37z
m-4040 -53 c13 -16 93 -311 138 -509 29 -132 32 -154 19 -164 -8 -6 -61 -21
-117 -33 -57 -13 -147 -33 -201 -46 -143 -33 -127 -58 -217 344 -57 257 -63
292 -51 310 7 11 360 108 402 110 9 1 21 -5 27 -12z m1956 -412 c9 -9 20 -33
25 -53 29 -110 44 -174 81 -341 22 -101 40 -195 40 -207 0 -34 -31 -50 -161
-83 -142 -36 -172 -41 -186 -33 -6 4 -23 47 -38 95 -36 118 -76 155 -119 111
-20 -19 -20 -17 0 -130 9 -51 14 -99 11 -107 -3 -8 -40 -24 -84 -36 -137 -37
-506 -121 -530 -121 -29 0 -34 11 -78 180 -28 106 -41 140 -61 158 -14 12 -29
22 -34 22 -13 0 -50 -42 -50 -56 0 -7 14 -75 31 -150 41 -184 41 -183 -46
-210 -130 -41 -274 -69 -286 -57 -24 24 -145 608 -134 644 4 12 25 24 58 34
71 20 1225 290 1467 343 65 14 77 14 94 -3z m3851 -75 c77 -122 305 -545 305
-566 0 -16 -21 -23 -410 -126 -168 -44 -429 -114 -580 -155 -542 -145 -885
-225 -912 -212 -20 11 -31 47 -108 358 -78 313 -78 315 -49 335 24 15 135 43
604 151 193 45 987 229 1070 248 45 10 55 6 80 -33z m-5621 -316 c8 -3 22 -27
30 -52 17 -54 116 -554 116 -588 0 -28 -35 -42 -250 -99 -174 -45 -180 -45
-200 10 -6 17 -40 158 -75 314 -46 205 -61 289 -54 302 11 21 32 28 254 80 88
20 161 38 162 38 1 1 8 -2 17 -5z m3720 -113 c15 -28 109 -402 142 -563 15
-70 16 -89 5 -101 -7 -9 -79 -31 -169 -52 -86 -21 -222 -53 -302 -72 -277 -65
-505 -115 -557 -120 l-52 -6 -26 87 c-14 48 -37 99 -49 113 -21 24 -26 26 -50
15 -35 -16 -40 -48 -22 -136 18 -85 15 -101 -23 -120 -22 -12 -303 -76 -332
-76 -16 0 -37 61 -75 218 -44 182 -104 452 -104 468 0 26 24 32 1220 299 157
35 294 66 305 68 53 12 74 7 89 -22z m2289 -278 c48 -54 320 -586 315 -617 -3
-22 -6 -23 -207 -71 -97 -23 -149 -31 -161 -25 -11 6 -27 47 -44 114 -31 114
-48 139 -93 134 -26 -3 -28 -6 -31 -53 -2 -27 4 -90 14 -139 13 -70 14 -90 4
-96 -15 -9 -407 -105 -499 -122 -56 -11 -65 -10 -76 5 -6 9 -44 146 -84 304
-39 158 -74 296 -77 306 -4 13 5 22 39 37 34 15 846 236 878 239 3 1 13 -7 22
-16z m-4027 -119 c22 -53 154 -603 154 -643 0 -16 -13 -24 -71 -41 -75 -23
-245 -60 -472 -105 -138 -27 -139 -27 -160 -7 -49 44 -95 40 -125 -12 -22 -38
-66 -54 -199 -76 -68 -11 -74 -10 -102 9 -43 31 -70 26 -117 -20 -36 -35 -55
-45 -134 -65 -51 -13 -103 -24 -116 -24 -27 0 -110 54 -414 268 -319 225 -343
246 -311 266 14 9 365 96 774 192 730 172 905 213 1062 253 204 51 212 51 231
5z m2969 -186 c8 -18 47 -158 86 -312 58 -230 68 -281 57 -291 -18 -18 -93
-40 -228 -69 -108 -24 -116 -24 -128 -8 -27 36 -153 493 -155 567 -2 60 -3 60
178 109 166 44 172 44 190 4z m-512 -112 c14 -15 55 -151 128 -432 49 -190 49
-192 -63 -217 -40 -9 -121 -29 -180 -45 -58 -16 -111 -26 -117 -23 -6 4 -17
25 -24 46 -25 71 -138 555 -135 578 3 24 45 39 225 81 128 29 147 31 166 12z
m-1324 -296 c10 -5 23 -22 29 -37 18 -44 42 -155 42 -195 0 -44 39 -30 -365
-128 -159 -39 -315 -77 -346 -85 -96 -26 -106 -23 -124 38 -33 116 -52 213
-45 227 9 17 29 23 430 115 358 82 350 81 379 65z"/>
<path d="M11167 12803 c-16 -16 -5 -44 24 -58 16 -9 92 -29 167 -46 198 -43
240 -56 247 -78 3 -11 -21 -156 -54 -323 -78 -396 -76 -382 -55 -402 9 -9 26
-16 38 -14 19 3 26 25 73 248 52 242 52 247 53 423 0 97 -3 177 -7 177 -5 0
-95 18 -201 40 -183 38 -270 48 -285 33z"/>
<path d="M11610 1648 c-11 -12 -20 -29 -20 -38 0 -21 36 -60 55 -60 12 0 15
14 15 60 0 67 -13 77 -50 38z"/>
</g>
</svg>
