<svg height="512pt" preserveAspectRatio="xMidYMid meet" viewBox="0 0 512 512" width="512pt" xmlns="http://www.w3.org/2000/svg"><g transform="matrix(.1 0 0 -.1 0 512)"><path d="m1214 5106c-68-30-95-96-83-199 17-136 112-277 234-347 56-32 154-60 209-60 20 0 36-2 36-4 0-3-25-42-56-88-166-247-264-562-264-848v-117l-78-71c-266-240-459-581-531-937-29-142-41-292-41-502v-182l-269-3c-254-3-271-4-297-24-91-68-96-185-11-248 28-21 41-21 625-26l597-5 5-677c5-665 5-677 26-705 46-63 118-76 277-48 191 33 351 113 489 244 143 135 234 291 284 483 13 50 18 132 21 385l5 323h169 169v-662c0-641 1-663 20-703 53-110 212-111 264-1 14 30 16 106 16 700v666h994 993l34 23c91 61 89 181-5 251-27 21-36 21-922 24l-894 2 70 71c167 169 271 353 338 597l26 97 6 590 5 590 435 5c321 4 441 8 457 17 12 7 32 28 45 45 22 31 23 41 23 203-1 180-11 258-52 385-54 167-144 312-272 441-143 143-312 240-519 297l-97 27h-495c-441 0-506-2-595-19-207-38-422-125-604-243l-83-54-193 3-192 3-36 28c-46 35-64 69-73 136-15 117-112 179-210 137zm2156-1391c0-1214 2-1165-61-1340-89-247-317-475-564-564-131-47-217-61-385-61h-151l55 66c154 181 245 378 275 598 7 48 11 308 11 689 0 683 3 656-70 705-34 24-39 24-185 18-219-8-423-57-630-151l-76-35 6 47c59 431 321 799 705 993 139 70 265 107 450 134 14 2 159 4 323 5l297 1zm410 1064c262-86 444-280 523-559 14-47 28-115 32-152l7-68h-336-336v400 400h23c13 0 52-9 87-21zm-1530-1761c0-311-4-539-11-578-28-175-104-324-229-451-99-100-185-154-320-201l-95-33-329-3-329-3 6 253c5 198 10 275 26 352 59 286 182 522 379 728 120 125 234 211 382 287 157 81 289 123 480 154 14 2 28 5 33 6 4 0 7-230 7-511zm-160-1835c0-148-5-297-11-332-24-153-114-307-234-404-59-48-174-109-227-121l-28-6v565 565h250 250z" fill="#fff"/><path d="m2834 4469c-41-12-91-69-100-114-9-49 19-119 58-147 47-33 124-36 168-6 97 65 89 208-15 258-45 22-63 23-111 9z" fill="#fff"/></g></svg>